<?xml version="1.0" encoding="utf-8"?>
<svg xmlns="http://www.w3.org/2000/svg" height="1024" viewBox="0 0 1536 1024" width="1536">
<defs>
<linearGradient gradientUnits="userSpaceOnUse" id="grad21" x1="489.19" x2="788.33" y1="454.33" y2="221.93">
<stop offset="0.0000" stop-color="#58a0ee"/>
<stop offset="0.2000" stop-color="#53a0f1"/>
<stop offset="0.3333" stop-color="#53a3f7"/>
<stop offset="0.5333" stop-color="#509aef"/>
<stop offset="0.6667" stop-color="#589bf2"/>
<stop offset="0.8667" stop-color="#6b8de9"/>
<stop offset="1.0000" stop-color="#7983e8"/>
</linearGradient>
<radialGradient cx="1017.67" cy="261.19" gradientUnits="userSpaceOnUse" id="grad37" r="49.62">
<stop offset="0.0000" stop-color="#fdfefe"/>
<stop offset="0.1042" stop-color="#fafafe"/>
<stop offset="0.1875" stop-color="#ede3fe"/>
<stop offset="0.2292" stop-color="#dfd1fd"/>
<stop offset="0.2708" stop-color="#d6c3fe"/>
<stop offset="0.3125" stop-color="#c7aefe"/>
<stop offset="0.3958" stop-color="#a990fd"/>
<stop offset="0.4375" stop-color="#9682fa"/>
<stop offset="0.4792" stop-color="#8472f1"/>
<stop offset="0.5625" stop-color="#645bdc"/>
<stop offset="0.6458" stop-color="#554fcb"/>
<stop offset="0.7292" stop-color="#524ec7"/>
<stop offset="0.8125" stop-color="#5852d0"/>
<stop offset="0.8542" stop-color="#655ddc"/>
<stop offset="0.8958" stop-color="#7d73e9"/>
<stop offset="0.9375" stop-color="#998deb"/>
<stop offset="1.0000" stop-color="#8876da"/>
</radialGradient>
<linearGradient gradientUnits="userSpaceOnUse" id="grad33" x1="473.34" x2="764.40" y1="518.69" y2="198.92">
<stop offset="0.0000" stop-color="#b4e4fe"/>
<stop offset="0.2000" stop-color="#a8e9ff"/>
<stop offset="0.6000" stop-color="#aaebff"/>
<stop offset="0.8000" stop-color="#a9dbff"/>
<stop offset="0.9333" stop-color="#baccff"/>
<stop offset="1.0000" stop-color="#c8c8ff"/>
</linearGradient>
<linearGradient gradientUnits="userSpaceOnUse" id="grad36" x1="792.02" x2="1012.26" y1="735.96" y2="563.08">
<stop offset="0.0000" stop-color="#ebcffe"/>
<stop offset="0.0667" stop-color="#f4d9ff"/>
<stop offset="0.2000" stop-color="#fdf0ff"/>
<stop offset="0.2667" stop-color="#fef5ff"/>
<stop offset="0.8000" stop-color="#fdf1ff"/>
<stop offset="1.0000" stop-color="#f2d6ff"/>
</linearGradient>
<linearGradient gradientUnits="userSpaceOnUse" id="grad27" x1="492.31" x2="810.06" y1="416.05" y2="222.49">
<stop offset="0.0000" stop-color="#7cc5fe"/>
<stop offset="0.4667" stop-color="#7bc8ff"/>
<stop offset="0.6000" stop-color="#7ec2ff"/>
<stop offset="0.8667" stop-color="#91aafb"/>
<stop offset="1.0000" stop-color="#a4a4fb"/>
</linearGradient>
<linearGradient gradientUnits="userSpaceOnUse" id="gradA1" x1="613.87" x2="805.13" y1="671.15" y2="706.42">
<stop offset="0.0000" stop-color="#31549f"/>
<stop offset="0.1333" stop-color="#3550a2"/>
<stop offset="0.5333" stop-color="#3a3695"/>
<stop offset="0.6000" stop-color="#3e3598"/>
<stop offset="0.7333" stop-color="#4e3aa5"/>
<stop offset="0.8667" stop-color="#6541b2"/>
<stop offset="1.0000" stop-color="#7142b3"/>
</linearGradient>
<linearGradient gradientUnits="userSpaceOnUse" id="grad32" x1="595.83" x2="781.91" y1="284.43" y2="222.65">
<stop offset="0.0000" stop-color="#c5fdff"/>
<stop offset="0.3333" stop-color="#b7effe"/>
<stop offset="0.5333" stop-color="#abdcfe"/>
<stop offset="0.6667" stop-color="#acd1fe"/>
<stop offset="0.8667" stop-color="#b5cdff"/>
<stop offset="1.0000" stop-color="#b7c4ff"/>
</linearGradient>
<linearGradient gradientUnits="userSpaceOnUse" id="grad23" x1="834.51" x2="1003.13" y1="263.66" y2="395.27">
<stop offset="0.0000" stop-color="#8a8bf0"/>
<stop offset="0.0667" stop-color="#908bf2"/>
<stop offset="0.2667" stop-color="#9b80f5"/>
<stop offset="0.4667" stop-color="#a07bf8"/>
<stop offset="0.7333" stop-color="#a684f5"/>
<stop offset="0.8667" stop-color="#a67ef2"/>
<stop offset="1.0000" stop-color="#9a6aed"/>
</linearGradient>
<radialGradient cx="887.50" cy="628.00" gradientUnits="userSpaceOnUse" id="gradA13" r="136.26">
<stop offset="0.3333" stop-color="#fa98fd"/>
<stop offset="0.4000" stop-color="#ed84f3"/>
<stop offset="0.4667" stop-color="#e57bef"/>
<stop offset="0.6000" stop-color="#df78f1"/>
<stop offset="0.8000" stop-color="#ca70f2"/>
<stop offset="1.0000" stop-color="#a864ee"/>
</radialGradient>
<linearGradient gradientUnits="userSpaceOnUse" id="grad26" x1="706.22" x2="838.16" y1="237.91" y2="242.07">
<stop offset="0.0000" stop-color="#99cdff"/>
<stop offset="0.4667" stop-color="#a2affe"/>
<stop offset="1.0000" stop-color="#a8a1ff"/>
</linearGradient>
<linearGradient gradientUnits="userSpaceOnUse" id="gradA16" x1="505.74" x2="516.98" y1="529.06" y2="381.85">
<stop offset="0.0000" stop-color="#72c1fe"/>
<stop offset="0.1333" stop-color="#7ac5fe"/>
<stop offset="0.4667" stop-color="#abeffe"/>
<stop offset="0.6000" stop-color="#b7f6ff"/>
<stop offset="1.0000" stop-color="#c3feff"/>
</linearGradient>
<linearGradient gradientUnits="userSpaceOnUse" id="grad10" x1="429.25" x2="510.82" y1="617.28" y2="691.81">
<stop offset="0.0000" stop-color="#446198"/>
<stop offset="0.1042" stop-color="#304b82"/>
<stop offset="0.2292" stop-color="#2f5194"/>
<stop offset="0.3125" stop-color="#2b529b"/>
<stop offset="0.3542" stop-color="#2c54a2"/>
<stop offset="0.3958" stop-color="#2a52a2"/>
<stop offset="0.4792" stop-color="#2e59ac"/>
<stop offset="0.5208" stop-color="#2c57ad"/>
<stop offset="0.5625" stop-color="#2e5bb3"/>
<stop offset="0.6458" stop-color="#2b56ad"/>
<stop offset="0.6875" stop-color="#2a56b0"/>
<stop offset="0.7292" stop-color="#2852ac"/>
<stop offset="0.8125" stop-color="#2b54af"/>
<stop offset="0.8958" stop-color="#2448aa"/>
<stop offset="1.0000" stop-color="#254cb4"/>
</linearGradient>
<linearGradient gradientUnits="userSpaceOnUse" id="grad18" x1="665.47" x2="805.59" y1="290.39" y2="270.15">
<stop offset="0.0000" stop-color="#3566ba"/>
<stop offset="0.0667" stop-color="#3b6dc4"/>
<stop offset="0.3333" stop-color="#4976d2"/>
<stop offset="1.0000" stop-color="#525fbe"/>
</linearGradient>
<linearGradient gradientUnits="userSpaceOnUse" id="grad14" x1="989.02" x2="1005.96" y1="635.66" y2="512.96">
<stop offset="0.0000" stop-color="#7c40ba"/>
<stop offset="0.1333" stop-color="#733eb7"/>
<stop offset="0.3333" stop-color="#6d40b8"/>
<stop offset="0.8000" stop-color="#7247c4"/>
<stop offset="0.9333" stop-color="#6e46c4"/>
<stop offset="1.0000" stop-color="#6743c0"/>
</linearGradient>
<linearGradient gradientUnits="userSpaceOnUse" id="grad25" x1="784.96" x2="882.54" y1="711.12" y2="654.67">
<stop offset="0.0000" stop-color="#b576f5"/>
<stop offset="0.2000" stop-color="#c16eee"/>
<stop offset="0.4000" stop-color="#c169e8"/>
<stop offset="0.6000" stop-color="#b869e9"/>
<stop offset="0.8667" stop-color="#ba70ec"/>
<stop offset="0.9333" stop-color="#b66de9"/>
<stop offset="1.0000" stop-color="#ae66e3"/>
</linearGradient>
<linearGradient gradientUnits="userSpaceOnUse" id="grad15" x1="743.14" x2="839.21" y1="715.25" y2="740.15">
<stop offset="0.0000" stop-color="#6541c7"/>
<stop offset="0.0625" stop-color="#6742c6"/>
<stop offset="0.2292" stop-color="#7549cb"/>
<stop offset="0.3542" stop-color="#7145bc"/>
<stop offset="0.3958" stop-color="#7546bd"/>
<stop offset="0.6875" stop-color="#7543b6"/>
<stop offset="0.7708" stop-color="#743eb1"/>
<stop offset="0.8125" stop-color="#7940b4"/>
<stop offset="0.8958" stop-color="#7c40b4"/>
<stop offset="0.9375" stop-color="#7a3eb0"/>
<stop offset="1.0000" stop-color="#8646be"/>
</linearGradient>
</defs>
<path d="M738 278.61 c-16.08 2.14 -40.75 8.12 -43.74 10.6 -2.82 2.33 .17 2.37 7.96&#xA;.11 30.06 -8.73 59.24 -11.1 94.78 -7.7 5.81 .56 6.34 .46 5 -.9 -3.44 -3.49&#xA;-43.69 -4.82 -64 -2.11z M1048.4 358.73 c-3.52 .32 -4.76 1.14 -8.75 5.76&#xA;-2.56 2.96 -4.65 5.58 -4.65 5.82 0 .24 5.96 .67 13.25 .95 16.05 .62 25.35&#xA;3.14 30.45 8.25 5.2 5.2 4.59 7.38 -4.51 16.33 -10.16 9.98 -42.19 34.7&#xA;-47.74 36.82 -.77 .3 -1.37 -1.48 -1.76 -5.21 -.32 -3.11 -.86 -5.94 -1.2&#xA;-6.28 -.34 -.34 -2.28 .28 -4.31 1.38 l-3.69 2 .32 6.79 c.33 7.11 -.67 9.66&#xA;-3.78 9.66 -.95 0 -2.51 -.86 -3.46 -1.92 -.96 -1.06 -4.96 -3.35 -8.9 -5.1&#xA;-5.63 -2.5 -8.02 -4.27 -11.17 -8.26 -2.2 -2.79 -5.74 -6.9 -7.86 -9.12&#xA;l-3.86 -4.04 -2.87 3.21 c-1.58 1.77 -2.68 3.78 -2.44 4.47 3.59 10.71 9.52&#xA;35.15 9.52 39.23 0 2.6 -52.21 29.24 -98.29 50.16 -46.18 20.96 -112.78 47.96&#xA;-148.21 60.08 -41.84 14.32 -58.95 19.95 -75.5 24.86 -44.47 13.18 -55.14&#xA;15.98 -57.45 15.1 -2.22 -.85 -17.39 -21.81 -23.27 -32.16 -11.28 -19.84&#xA;-19.78 -43.44 -23.77 -66 -3.04 -17.2 -2.96 -52.43 .16 -64.5 .63 -2.46 .61&#xA;-2.47 -1.42 -.68 -2.69 2.37 -3.65 9.43 -5.89 43.18 -.29 4.4 -.98 10.02&#xA;-1.53 12.5 -.55 2.48 -1.17 10.12 -1.38 17 -.21 6.88 -.56 17 -.78 22.5 -.54&#xA;13.62 3.41 29.34 11.2 44.5 13.05 25.4 15.12 29.66 15.13 31.11 .01 1.23&#xA;-1.41 1.76 -6.08 2.24 -3.35 .35 -6.44 1.14 -7.08 1.55 -.64 .41 -2.46 .62&#xA;-3.83 .67 -5.2 .2 -26.55 3.72 -27.6 4.55 -1.3 1.03 -13.88 1.9 -35.9 2.5&#xA;-12.7 .34 -17.13 .1 -21.5 -1.17 -8.13 -2.37 -10.8 -3.49 -13.7 -5.78 -1.44&#xA;-1.13 -3.33 -2.14 -4.21 -2.23 -.88 -.1 -2.31 -.48 -3.19 -.85 -2.28 -.97&#xA;-7.9 5.65 -7.9 9.31 0 4.84 3.98 9.29 12.53 14 5.48 3.02 9.37 4.47 12.47&#xA;4.65 2.48 .14 7.53 .59 11.24 1 6.53 .71 23.94 -.59 54.8 -4.11 14.73 -1.68&#xA;20.2 -1.79 21.53 -.45 1.42 1.42 18.67 -1.89 51.92 -9.96 102.4 -24.83 204.78&#xA;-63.39 320 -120.54 50.2 -24.9 82.55 -43.17 116.5 -65.81 34.87 -23.25 65.83&#xA;-51.46 71.58 -65.2 1 -2.4 1.51 -3.58 .99 -4.8 -.52 -1.22 -2.07 -2.49 -5.18&#xA;-5.05 -4.92 -4.05 -6.2 -4.62 -10.33 -4.62 -3.73 0 -5.2 -.52 -7.05 -2.49&#xA;-4.43 -4.72 -11.67 -6.53 -25.3 -6.34 -6.72 .1 -14.06 .34 -16.32 .55z&#xA;M590.24 362.26 c-1.78 1.84 -3.24 3.8 -3.24 4.35 0 .56 -1.33 2.29 -2.95 3.85&#xA;-1.62 1.56 -3.68 4.23 -4.57 5.94 -2.02 3.88 -3.49 6.35 -5.82 9.81 -1.72&#xA;2.56 -1.5 5.44 .34 4.3 .47 -.29 2.46 -3.41 4.43 -6.93 1.97 -3.52 6.31&#xA;-10.08 9.64 -14.57 6.41 -8.64 7.6 -12.34 2.18 -6.75z M1098.81 411.75 c-9&#xA;9.19 -29.29 28.18 -44.61 41.76 -5.91 5.24 -6.61 6.8 -4.7 10.48 .86 1.65&#xA;1.94 3.01 2.42 3.01 1.24 0 25.15 -22.19 34.59 -32.1 12.72 -13.35 25.49&#xA;-29.7 25.49 -32.63 0 -2.99 -3.29 -.62 -13.19 9.48z M806 580.46 c-4.12 .67&#xA;-9.08 1.54 -11 1.94 -2.44 .5 -4.1 .27 -5.48 -.75 -1.77 -1.31 -2.67 -1.2&#xA;-8.5 1.03 -29.52 11.3 -76.62 27.03 -106.02 35.42 -39.16 11.17 -90.51 23.56&#xA;-111.5 26.89 -4.96 .79 -7.73 1.8 -9.5 3.49 -2.9 2.76 -7.71 4.8 -9.18 3.9&#xA;-.56 -.34 -1.98 -.16 -3.17 .41 -4.07 1.96 -8.52 3.05 -10.41 2.55 -1.04 -.27&#xA;-3.44 .42 -5.33 1.54 -1.89 1.12 -6.58 2.99 -10.43 4.16 -6.44 1.97 -12.49&#xA;5.98 -12.49 8.28 0 1.42 44.99 .1 60.4 -1.78 l12.9 -1.57 5.6 5.29 c30.28&#xA;28.59 71.92 51.46 112.27 61.67 20.95 5.3 21.25 5.32 21.63 1.49 .25 -2.55&#xA;-.47 -3.79 -4.16 -7.19 -2.45 -2.26 -6.64 -5.22 -9.3 -6.57 -2.66 -1.35 -5.97&#xA;-3.69 -7.34 -5.18 -1.38 -1.49 -5.77 -4.22 -9.76 -6.05 -4.09 -1.88 -7.51&#xA;-4.12 -7.82 -5.13 -1.19 -3.81 -2.19 -4.55 -11.09 -8.22 -16.23 -6.69 -47.33&#xA;-25.58 -47.33 -28.75 0 -1.91 4.24 -1.65 9.22 .58 2.35 1.05 9 4.03 14.78&#xA;6.63 11.42 5.13 25.5 9.44 30.92 9.45 1.88 .01 4.24 -.73 5.25 -1.64 1.67&#xA;-1.51 1.98 -1.52 3.58 -.12 2.97 2.6 7.53 4.47 12.56 5.12 4.2 .55 5.11 .33&#xA;7.21 -1.77 2.16 -2.16 4.3 -7.23 3.35 -7.95 -.2 -.15 -5.32 -1.96 -11.37&#xA;-4.02 -10.53 -3.58 -35.51 -15.18 -35.49 -16.48 0 -.34 6.42 -2.36 14.25&#xA;-4.49 43.51 -11.8 71.98 -21.06 73.31 -23.85 .55 -1.15 4.4 -3.34 9.43 -5.38&#xA;4.67 -1.89 10.98 -4.93 14 -6.75 3.02 -1.82 7.69 -4.13 10.38 -5.11 5.74&#xA;-2.12 36.92 -22.7 39.1 -25.8 1.36 -1.95 1.31 -2.34 -.66 -4.44 -1.2 -1.28&#xA;-1.78 -1.91 -3.37 -2.02 -1.59 -.1 -4.19 .33 -9.44 1.18z M995.79 604.77&#xA;c-.81 .95 -1.78 2.4 -2.14 3.23 -.36 .83 -1.55 2.85 -2.64 4.5 -1.09 1.65&#xA;-2.29 3.67 -2.68 4.5 -.8 1.7 -8.3 12.34 -13.53 19.19 -38.66 50.65 -95.19&#xA;85.53 -158.05 97.51 -3.36 .64 -4.53 2.01 -2.29 2.86 2.07 .79 18.7 -2.8&#xA;32.79 -7.17 44.66 -13.87 90.22 -43.9 119.43 -78.72 12.62 -15.04 17.76&#xA;-22.34 30.18 -42.85 2.31 -3.82 1.53 -6.07 -1.06 -3.06z M454.44 663.09 c-.89&#xA;1.44 -.68 1.54 5.84 2.64 5.73 .97 7.84 .4 5.46 -1.48 -1.92 -1.51 -10.53&#xA;-2.39 -11.3 -1.16z M471.44 666.11 c-.35 .57 -.48 1.18 -.29 1.37 .64 .63&#xA;27.95 2.75 28.49 2.21 .29 -.29 -.52 -1.19 -1.8 -1.99 -2.91 -1.82 -25.42&#xA;-3.18 -26.4 -1.59z M757.44 740.07 c-1.71 1.89 -1.6 1.93 5.26 1.93 11.9 0&#xA;19.48 -1.08 18.23 -2.59 -.76 -.92 -4.13 -1.3 -11.41 -1.29 -8.92 .01 -10.57&#xA;.28 -12.08 1.95z" fill="#1d2c71" fill-rule="evenodd" stroke="#1d2c71" stroke-linejoin="round" stroke-width="0.80"/>
<path d="M736 246.96 c-10.7 .9 -25.98 3.8 -43 8.17 -11.66 2.99 -36.76 11.87 -40.6&#xA;14.36 -1.15 .75 -4.98 2.57 -8.5 4.05 -3.52 1.48 -11.8 5.93 -18.4 9.9 -18.07&#xA;10.85 -22.31 13.09 -23.18 12.22 -2.11 -2.11 18.96 -18.69 33.75 -26.55 5.26&#xA;-2.8 10.63 -6.21 11.92 -7.59 1.3 -1.38 2.86 -2.51 3.48 -2.51 1.77 0 3.42&#xA;-2.11 2.84 -3.62 -.9 -2.34 -3.18 -1.6 -16.71 5.43 -20.34 10.57 -43.05 26.22&#xA;-57.44 39.57 -8.21 7.62 -25.47 27.04 -32.92 37.03 -13.04 17.5 -25.97 41.28&#xA;-33.66 61.89 -4.55 12.19 -5.32 15.7 -3.46 15.7 2.02 -0 9.23 -8.77 12.35&#xA;-15.05 3.4 -6.82 8.74 -14.89 9.88 -14.93 .48 -.01 .54 .75 .13 1.72 -4.51&#xA;10.86 -10 26.47 -12.34 35.09 -5.76 21.21 -7.19 31.58 -7.8 56.66 -.57 23.33&#xA;.8 36.93 3.9 38.89 3.47 2.19 4.16 -.58 4.9 -19.66 1.03 -26.64 3.15 -41.95&#xA;8.93 -64.55 1.7 -6.63 2.51 -9.85 3.88 -13.74 1.38 -3.89 3.31 -8.46 7.27&#xA;-17.81 7.26 -17.16 15.32 -30.71 27.16 -45.64 5.02 -6.33 10.45 -13.3 12.09&#xA;-15.5 8.71 -11.74 31.31 -32.62 45.78 -42.29 31.19 -20.83 72.36 -35.97 108.1&#xA;-39.75 18.19 -1.92 48.41 -1.88 64.48 .09 15.79 1.93 35.59 6.91 39.27 9.63&#xA;1.53 1.13 3.4 1.83 4.11 1.83 3.61 .05 21.03 6.48 29.11 10.75 15.17 8.02&#xA;34.95 21.6 46.56 31.97 11.79 10.53 13.53 11.88 22.37 17.37 3.19 1.99 10.8&#xA;7.97 16.9 13.3 6.1 5.33 13.24 10.77 15.85 12.09 3.43 1.74 6.34 4.52 10.43&#xA;9.95 3.12 4.15 6.03 7.55 6.47 7.55 .43 0 1.56 -.86 2.51 -1.9 1.64 -1.81&#xA;1.59 -2.16 -.98 -7.25 -3.29 -6.51 -16.56 -27.03 -20.6 -31.85 -1.61 -1.92&#xA;-6.45 -7.77 -10.74 -13 -4.38 -5.32 -11.44 -12.36 -16.07 -16 -4.54 -3.58&#xA;-9.64 -7.62 -11.33 -9 -10.04 -8.18 -37.69 -22.6 -57.19 -29.84 -12.92 -4.79&#xA;-36.65 -11.6 -48 -13.76 -4.4 -.84 -10.02 -1.96 -12.5 -2.5 -5.82 -1.26&#xA;-66.62 -1.98 -79 -.94z M1051.13 358.34 c-1.7 2.04 -1.02 2.18 8.84 1.84 7.79&#xA;-.27 8.97 -.53 7.97 -1.75 -1.6 -1.93 -15.22 -2 -16.81 -.09z M1035 359.5&#xA;c-3.58 .73 -8.6 1.62 -11.17 1.97 -5.41 .74 -7.68 2.59 -5.43 4.45 1.13 .94&#xA;3.26 .86 10.26 -.36 4.86 -.85 10.08 -1.55 11.59 -1.55 1.78 -0 2.75 -.53&#xA;2.75 -1.5 0 -.95 .96 -1.5 2.62 -1.5 2.22 0 2.43 -.23 1.38 -1.5 -1.48 -1.78&#xA;-3.35 -1.78 -12 -0z M1103.73 361.6 c-.33 .33 .72 2.42 2.33 4.65 1.61 2.23&#xA;2.93 4.79 2.93 5.7 0 1.92 2.23 7.03 3.08 7.04 .32 0 1.6 -1.08 2.84 -2.41&#xA;2.98 -3.17 2.25 -5.22 -3.91 -10.98 -4.83 -4.52 -6.08 -5.2 -7.28 -4z M478.48&#xA;562.29 c-21.8 13.37 -31.65 20.79 -43.57 32.8 -16.21 16.34 -23.53 30.78&#xA;-21.09 41.63 1.03 4.6 6.23 12.65 9.48 14.68 3.19 1.99 10.25 2.64 12.32 1.13&#xA;1.64 -1.2 1.64 -1.45 -.02 -4.95 -.96 -2.03 -2.73 -4.06 -3.93 -4.53 -2.44&#xA;-.94 -5.86 -4.44 -7.55 -7.74 -4.89 -9.49 5.52 -26.4 27.96 -45.43 5.82 -4.94&#xA;12.68 -10.42 15.25 -12.18 22.21 -15.26 26.51 -18.31 28.92 -20.54 1.51 -1.4&#xA;2.75 -2.91 2.75 -3.35 0 -2.71 -6.99 .18 -20.52 8.48z M805 571.98 c-.83 .47&#xA;-3.19 1.59 -5.25 2.49 -2.06 .9 -3.75 2.09 -3.75 2.65 0 .69 -.64 .82 -2 .38&#xA;-1.35 -.43 -2.21 -.1 -2.63 1 -.91 2.37 .96 3.9 3.27 2.67 1.03 -.55 4.12&#xA;-1.77 6.87 -2.72 6.42 -2.22 8.9 -4.27 7.37 -6.1 -1.27 -1.53 -1.77 -1.58&#xA;-3.87 -.37z" fill="#eff5fe" fill-rule="evenodd" stroke="#eff5fe" stroke-linejoin="round" stroke-width="0.80"/>
<path d="M789 232.38 c0 2.46 2.52 3.58 11.59 5.16 4.9 .85 11.61 2.43 14.91 3.51 3.3&#xA;1.08 7.2 1.96 8.67 1.96 1.47 -0 3.38 .27 4.25 .61 3.12 1.2 1.49 2.39 -3.26&#xA;2.39 -3.47 0 -5.33 .53 -6.54 1.88 -1.62 1.79 -1.62 1.91 .1 2.61 .99 .41&#xA;5.17 1.34 9.29 2.09 34.46 6.2 83.19 26.52 105.36 43.92 13.93 10.93 20.88&#xA;17.32 26.14 24 3.3 4.2 7.41 9.29 9.13 11.31 4.13 4.87 17.38 25.27 20.81&#xA;32.06 2.07 4.09 2.44 5.64 1.54 6.5 -.88 .85 -1.59 .51 -2.83 -1.33 -4.95&#xA;-7.34 -10.77 -13.32 -15.1 -15.52 -2.64 -1.34 -9.8 -6.79 -15.91 -12.12 -6.1&#xA;-5.33 -13.71 -11.31 -16.9 -13.3 -8.84 -5.5 -10.58 -6.85 -22.37 -17.37&#xA;-18.84 -16.82 -47.55 -34.33 -65.08 -39.67 -12.7 -3.87 -13.55 -4.27 -14.7&#xA;-2.88 -2 2.41 1.57 5.51 10.1 8.26 8.5 2.74 21.79 9.76 32.3 17.04 18.75 13&#xA;23.66 16.78 30.02 23.07 22.09 21.86 29.42 28.45 31.68 28.45 2.52 0 10.09&#xA;5.29 18.41 12.85 7.26 6.6 28.15 23.4 31 24.93 2.39 1.28 8.39 11.79 8.39&#xA;14.7 0 .85 .45 2.32 1 3.28 .55 .96 1.87 3.84 2.93 6.42 2.59 6.26 5.03 7.55&#xA;8.11 4.28 l2.32 -2.47 -2.76 -8.75 c-2.67 -8.44 -3.65 -12.67 -5.16 -22.25&#xA;-.39 -2.48 -1.15 -5.06 -1.7 -5.75 -.72 -.91 -.65 -1.66 .25 -2.74 1.31 -1.58&#xA;.62 -5 -.84 -4.11 -.48 .29 -2.14 -1.82 -3.7 -4.69 -1.56 -2.87 -6.17 -10.17&#xA;-10.25 -16.22 -42.83 -63.56 -110.68 -104.05 -188.42 -112.45 -12.36 -1.34&#xA;-12.79 -1.32 -12.79 .33z m268.98 199.75 c-6.35 4.79 -24.09 16.74 -38.48&#xA;25.92 -31.14 19.87 -105.67 58.6 -158.84 82.54 -21.62 9.74 -21.82 9.86&#xA;-19.64 11.62 1.21 .98 3.81 1.78 5.76 1.78 1.96 0 4.29 .92 5.26 1.8 1.67&#xA;1.51 2.04 1.29 5.65 -.57 2.1 -1.09 10.56 -5.03 18.81 -8.76 29.96 -13.56&#xA;75.22 -36.26 102.09 -51.54 36.27 -20.63 84.41 -53.16 84.41 -56.83 0 -1.02&#xA;.7 -2.43 1.55 -3.14 1.66 -1.38 1.61 -6.09 -.07 -6.64 -.56 -.18 -3.49 1.53&#xA;-6.5 3.8z M992.3 512.29 c-2.13 2.39 -4.54 12.48 -4.7 19.71 -.09 4.12 .09&#xA;4.47 2.15 4.19 1.32 -.18 2.14 .3 2.14 1.05 0 1.04 .38 .92 1.54 -.27 1.52&#xA;-1.56 4.57 -15.92 4.57 -21.54 0 -4.61 -2.94 -6.23 -5.7 -3.14z M977.28 548.2&#xA;c-.58 .72 -2.51 4.23 -4.29 7.8 -1.78 3.58 -4.87 8.36 -6.87 10.63 -1.99 2.27&#xA;-5.58 6.89 -7.96 10.25 -2.38 3.36 -4.71 6.12 -5.17 6.12 -.46 0 -3.87 4.16&#xA;-7.59 9.25 -10.06 13.77 -24.14 29.43 -34 37.81 -4.81 4.09 -9.57 8.22 -10.58&#xA;9.19 -1 .96 -2.07 1.75 -2.37 1.75 -.3 0 -2.89 1.69 -5.75 3.77 -2.86 2.07&#xA;-6.48 4.41 -8.03 5.21 -1.55 .79 -4.03 3.23 -5.5 5.41 -1.47 2.18 -5.9 6.25&#xA;-9.84 9.04 -3.94 2.79 -10.02 7.21 -13.5 9.82 -12.07 9.04 -19.74 13.67&#xA;-30.16 18.2 -5.75 2.51 -11.11 4.56 -11.9 4.56 -.79 0 -2.49 1.12 -3.78 2.5&#xA;l-2.35 2.5 2.76 0 c3.77 0 23.43 -6.05 35.86 -11.04 11.13 -4.47 17.84 -7.99&#xA;21.73 -11.43 1.38 -1.21 4.52 -3.41 7 -4.88 17.02 -10.14 39.48 -28.55 54.42&#xA;-44.62 12.94 -13.92 24.53 -27.43 27.08 -31.57 1.1 -1.79 4.7 -7.16 8 -11.94&#xA;9.5 -13.75 12.17 -18.33 15.41 -26.44 4.13 -10.35 4.3 -12.5 1.01 -12.88&#xA;-1.42 -.17 -3.06 .28 -3.63 1z M751.03 705.97 l-20.47 .53 -1.28 2.5 c-.71&#xA;1.38 -1.17 3.4 -1.03 4.5 .24 1.91 1.11 2.01 19.75 2.27 17.45 .24 19.63 .09&#xA;20.75 -1.44 1.2 -1.64 1.31 -1.64 2.6 .13 1.48 2.02 3.85 1.35 3 -.86 -.29&#xA;-.76 .19 -2.76 1.04 -4.39 1.72 -3.32 1.26 -4.32 -1.8 -4 -1.15 .12 -11.3 .46&#xA;-22.56 .75z" fill="#d8a8fe" fill-rule="evenodd" stroke="#d8a8fe" stroke-linejoin="round" stroke-width="0.80"/>
<path d="M1092.17 360.7 c-3.76 3.13 -4.1 3.73 -2.87 5.17 .77 .9 1.74 2.53 2.16 3.63&#xA;.49 1.27 .94 1.54 1.24 .75 .27 -.74 2.25 -1.25 4.79 -1.25 3.51 0 5.14 .68&#xA;8.67 3.64 l4.34 3.64 .32 -2.73 c.2 -1.69 -.65 -4.21 -2.25 -6.62 -1.42 -2.14&#xA;-2.57 -4.3 -2.57 -4.81 0 -.5 -.56 -1.15 -1.25 -1.43 -.69 -.28 -2.84 -1.2&#xA;-4.78 -2.03 -3.49 -1.49 -3.58 -1.47 -7.8 2.03z M1035.33 360.83 c-.37 1.43&#xA;-2.15 2.09 -8.09 3.01 -4.76 .74 -7.82 .84 -8.18 .26 -.32 -.51 -1.8 -.69&#xA;-3.32 -.4 -3.24 .62 -9.32 7.21 -7.95 8.57 .57 .57 6.11 .35 14.66 -.38 13.68&#xA;-1.18 13.79 -1.21 17.16 -4.57 4.07 -4.07 4.25 -5.32 .78 -5.32 -1.91 0 -2.45&#xA;-.4 -2.03 -1.5 .36 -.94 -.01 -1.5 -.99 -1.5 -.86 0 -1.78 .82 -2.04 1.83z&#xA;M1114.93 379.58 c-1.05 1.27 -1.08 2.18 -.15 4.65 1.26 3.34 .87 4.77 -1.29&#xA;4.77 -.77 0 -4.59 3.83 -8.5 8.51 -7.49 8.96 -20.65 21.18 -35.25 32.73 -4.81&#xA;3.81 -8.75 7.45 -8.76 8.09 -.01 2.09 -45.25 32.67 -67.72 45.79 -5.08 2.96&#xA;-9.5 6.18 -9.82 7.15 -.33 .97 -2.56 2.49 -4.86 3.66 -2.3 1.17 -5.16 3.19&#xA;-6.47 4.21 -1.31 1.02 -3.16 1.86 -4.11 1.86 -.95 0 -3.48 1.4 -5.62 3.1&#xA;-2.14 1.71 -6.89 4.62 -10.56 6.48 -3.67 1.85 -6.94 3.8 -7.27 4.33 -.33 .53&#xA;-3.1 1.9 -6.17 3.05 -3.07 1.15 -7.05 3.21 -8.84 4.58 -1.8 1.37 -5.5 3.16&#xA;-8.24 3.97 -2.74 .81 -6.96 2.82 -9.39 4.47 -3.32 2.25 -5.57 3 -9.08 3.01&#xA;-3.99 .02 -5.04 .47 -7.32 3.17 -2.57 3.06 -11.28 6.84 -15.74 6.84 -1.05 0&#xA;-5.31 1.57 -9.46 3.49 -4.15 1.92 -8.02 3.2 -8.59 2.85 -.57 -.35 -1.53 .03&#xA;-2.14 .85 -1.62 2.19 -5.24 3.89 -6.92 3.25 -1.69 -.65 -44.68 17.3 -44.68&#xA;18.65 0 1.19 -6.76 4.05 -10.35 4.38 -1.57 .14 -3.2 .82 -3.63 1.51 -.44 .71&#xA;-1.62 .98 -2.75 .62 -1.19 -.38 -2.47 -.05 -3.19 .83 -.98 1.18 -.73 1.77&#xA;1.34 3.13 2.14 1.4 3.32 1.5 7.32 .61 7.84 -1.75 19.33 -3.22 20.33 -2.6 .51&#xA;.32 .94 1.42 .94 2.45 0 2.35 -30.34 22.87 -38.16 25.82 -2.93 1.11 -7.9 3.56&#xA;-11.04 5.46 -3.14 1.9 -9.61 4.97 -14.38 6.83 -6.09 2.37 -8.98 4.05 -9.71&#xA;5.65 -.57 1.25 -.78 2.53 -.46 2.85 .32 .32 10.85 -3.12 23.41 -7.64 35.3&#xA;-12.7 38.18 -13.88 38.84 -15.97 .33 -1.03 3.16 -3.09 6.3 -4.56 3.13 -1.47&#xA;6.82 -3.47 8.2 -4.44 3.5 -2.46 25.84 -13.98 27.11 -13.98 .58 0 5.74 -2.7&#xA;11.47 -6 5.73 -3.3 10.75 -6 11.17 -6.01 .41 -0 4.35 -2.1 8.75 -4.65 9.04&#xA;-5.25 25.17 -14.25 46.5 -25.96 15.19 -8.34 41.92 -21.68 53 -26.45 3.58&#xA;-1.54 8.98 -4.17 12 -5.85 3.02 -1.68 6.28 -3.06 7.22 -3.07 .95 -.01 3.76&#xA;-1.01 6.26 -2.22 5.48 -2.66 5.91 -2.34 9.88 7.2 4.23 10.17 5.02 11.41 7.9&#xA;12.42 1.48 .52 2.9 .75 3.14 .51 .84 -.84 2.6 -19.94 2.6 -28.25 l0 -8.39&#xA;12.48 -10.24 12.48 -10.24 -1.51 -2.92 c-1.8 -3.48 -1.02 -5.42 3.78 -9.41&#xA;8.66 -7.2 34.27 -31.11 43.22 -40.36 5.52 -5.7 10.98 -10.73 12.14 -11.17&#xA;4.86 -1.85 11.5 -24.97 7.18 -24.97 -.84 0 -2.11 .71 -2.83 1.58z M960.05&#xA;389.95 c-1.2 .76 -.77 2.31 2.61 9.23 2.23 4.58 5.08 11.13 6.33 14.57 2.43&#xA;6.67 3.31 7.42 5 4.25 1.82 -3.39 4.67 -2.35 8.92 3.25 7.27 9.58 9.51 11.55&#xA;17.08 14.99 4.12 1.88 8.12 4.17 8.87 5.09 1.77 2.16 4.03 2.09 7.03 -.22&#xA;2.24 -1.72 2.36 -2.28 1.74 -8.18 -.78 -7.42 -1.83 -8.98 -4.45 -6.6 -1.27&#xA;1.15 -1.88 1.73 -2.98 1.3 -1.09 -.43 -2.67 -1.86 -5.85 -4.74 -3.11 -2.82&#xA;-7.51 -5.94 -9.78 -6.95 -2.27 -1 -5.22 -3.31 -6.55 -5.13 -4.68 -6.39 -16.57&#xA;-19 -19.24 -20.39 -3.08 -1.61 -6.64 -1.8 -8.75 -.46z M533.16 609.3 c-.81&#xA;.98 -.09 2.79 2.87 7.25 2.18 3.27 3.96 6.51 3.96 7.2 0 1.61 1.94 1.57 10.5&#xA;-.21 3.85 -.8 8.35 -1.74 10 -2.08 5.87 -1.21 6.04 -1.34 4.23 -3.16 -1.39&#xA;-1.39 -1.83 -1.46 -3.07 -.43 -2.19 1.82 -8.68 -.02 -15.1 -4.28 -3.01 -2&#xA;-5.75 -4.07 -6.08 -4.61 -.88 -1.42 -6.06 -1.19 -7.32 .33z M675 702.33 c0&#xA;3.17 3.27 5.99 11 9.48 3.58 1.62 7.62 4.17 9 5.67 1.38 1.5 4.62 3.81 7.21&#xA;5.13 7.75 3.95 11.79 8.06 11.79 12.01 0 2.04 .5 3.4 1.25 3.42 .69 .01 4.17&#xA;.46 7.75 .99 11.61 1.74 34.39 3 35.43 1.95 .53 -.53 1.79 -.97 2.8 -.97 2.93&#xA;0 3.26 -2.85 .65 -5.65 -2.48 -2.66 -8.9 -6.35 -11.03 -6.35 -.68 0 -2.88&#xA;-1.14 -4.89 -2.53 -4.52 -3.13 -12.99 -6.45 -18.96 -7.44 -6.07 -1 -7.34&#xA;-1.65 -9.79 -4.96 -1.53 -2.06 -3.55 -3.16 -7.4 -4.02 -15.54 -3.47 -25.7&#xA;-6.1 -29.02 -7.48 -4.97 -2.08 -5.78 -1.97 -5.78 .77z" fill="#363691" fill-rule="evenodd" stroke="#363691" stroke-linejoin="round" stroke-width="0.80"/>
<path d="M1040.5 359 c-.35 .57 .69 1.06 2.44 1.15 1.68 .08 3.58 .19 4.23 .25 .64 .06&#xA;1.35 -.46 1.58 -1.15 .51 -1.53 -7.31 -1.77 -8.25 -.25z M949.78 372.25&#xA;c-1.43 1.11 -1.02 2.22 3.82 10.25 5.29 8.76 5.52 8.99 8.84 8.68 1.88 -.18&#xA;4.61 .31 6.07 1.07 3.07 1.61 18.2 18.28 19.07 21.01 .32 1.01 2.96 2.89 5.86&#xA;4.17 2.9 1.28 7.82 4.64 10.93 7.45 3.11 2.81 5.89 5.12 6.18 5.12 1.53 0&#xA;3.04 -2.68 2.65 -4.7 -.49 -2.55 .02 -2.79 2.8 -1.3 1.62 .87 4.84 .21 7.8&#xA;-1.6 .72 -.44 -6.54 -26.23 -7.79 -27.68 -.37 -.43 -1.42 .06 -2.35 1.08&#xA;-1.41 1.56 -1.5 2.39 -.53 5.17 .89 2.56 .88 4.08 -.07 6.71 -.73 2.02 -.96&#xA;5.01 -.56 7.35 .37 2.18 .33 3.96 -.08 3.96 -1.19 0 -7.55 -4.93 -12.57 -9.75&#xA;-2.69 -2.59 -6.02 -4.74 -7.94 -5.13 -2.57 -.53 -5.31 -2.97 -12.36 -11.04&#xA;-4.98 -5.7 -10.46 -11.31 -12.17 -12.47 -1.71 -1.16 -5.53 -3.79 -8.49 -5.86&#xA;-5.89 -4.11 -6.75 -4.35 -9.12 -2.5z m28.9 120.31 c-15.65 9.35 -65.01 34.74&#xA;-91.6 47.11 -6.96 3.24 -9.13 4.68 -8.3 5.51 2.32 2.32 14.83 -2.38 17.61&#xA;-6.62 1.4 -2.13 2.45 -2.55 6.4 -2.57 3.58 -.01 5.8 -.74 9.14 -3.01 2.43&#xA;-1.65 6.65 -3.66 9.39 -4.47 2.74 -.81 6.44 -2.6 8.24 -3.97 1.8 -1.37 5.78&#xA;-3.43 8.84 -4.58 3.07 -1.15 5.84 -2.52 6.17 -3.05 .33 -.53 3.6 -2.48 7.27&#xA;-4.33 3.67 -1.85 8.42 -4.77 10.56 -6.48 2.14 -1.71 4.66 -3.1 5.62 -3.1 .95&#xA;0 2.8 -.84 4.11 -1.86 1.31 -1.02 4.27 -2.82 6.57 -3.99 3.83 -1.95 7.32&#xA;-5.46 7.32 -7.37 0 -1.32 -1.29 -.83 -7.33 2.78z M1004 502 c-1.92 1.05 -4.4&#xA;1.94 -5.5 1.98 -1.1 .03 -4.48 1.43 -7.5 3.11 -3.02 1.68 -8.42 4.31 -12 5.85&#xA;-11.08 4.77 -37.81 18.11 -53 26.45 -21.33 11.71 -37.46 20.72 -46.5 25.96&#xA;-4.4 2.55 -8.34 4.65 -8.75 4.65 -.41 0 -5.44 2.71 -11.17 6.01 -5.73 3.3&#xA;-10.89 6 -11.47 6 -1.27 0 -23.61 11.52 -27.11 13.98 -1.38 .97 -5.1 2.98&#xA;-8.29 4.48 -5.3 2.49 -9.77 6.82 -8.43 8.16 .65 .65 36.54 -14.22 38.72&#xA;-16.05 .83 -.69 5.77 -3.42 11 -6.07 5.23 -2.65 12.88 -6.62 17 -8.82 26.44&#xA;-14.13 58.49 -30.96 67.75 -35.56 2.34 -1.16 6.16 -3.09 8.5 -4.28 11.35&#xA;-5.77 17.51 -8.6 20.19 -9.25 1.62 -.4 4.23 -1.64 5.81 -2.76 1.58 -1.12 3.03&#xA;-1.88 3.22 -1.68 .19 .2 -.23 2.61 -.94 5.36 -.71 2.75 -1.09 5.34 -.85 5.75&#xA;1.5 2.56 8.77 -2.68 10.94 -7.88 .74 -1.77 2.24 -3.51 3.33 -3.85 1.33 -.42&#xA;2.18 -1.84 2.57 -4.32 .32 -2.03 .93 -4.34 1.36 -5.13 1.13 -2.12 3.12 -2.48&#xA;3.12 -.58 0 1.17 .56 1.47 1.92 1.04 2.56 -.81 2.91 -.1 5.26 10.79 2.26&#xA;10.47 2.82 27.93 1.44 45.19 -.83 10.41 -.77 11.1 1.17 12.83 1.99 1.78 2.08&#xA;1.78 3.02 0 4.83 -9.11 14.47 -42.23 16.58 -56.96 .56 -3.94 .46 -4.15 -2.32&#xA;-4.71 -1.88 -.38 -3.16 -1.4 -3.6 -2.87 -1.65 -5.46 -6.8 -16.4 -8.26 -17.54&#xA;-2.09 -1.64 -3.03 -1.54 -7.21 .75z M715.63 710.82 c-.81 1.38 1.35 5.12 3.94&#xA;6.81 1.47 .96 4.76 2.06 7.3 2.44 5.82 .87 14.34 4.13 19.03 7.27 1.98 1.33&#xA;4.75 2.68 6.16 3 4.36 1 9.45 5.05 9.36 7.46 -.06 1.79 .48 2.19 3 2.22 1.69&#xA;.02 8.14 .24 14.33 .5 7.82 .32 11.25 .13 11.25 -.64 0 -.81 .71 -.93 2.64&#xA;-.44 3.82 .96 21.2 -1.32 21.8 -2.88 1.1 -2.85 -4.3 -5.86 -14.68 -8.12 -5.65&#xA;-1.23 -12.07 -2.94 -14.27 -3.8 -2.2 -.86 -5.48 -1.58 -7.28 -1.61 -1.81 -.02&#xA;-4.88 -.71 -6.84 -1.53 -1.96 -.82 -7.5 -2.12 -12.32 -2.9 -4.82 -.78 -10.15&#xA;-2.13 -11.86 -3.01 -2 -1.03 -5.65 -1.6 -10.29 -1.6 -4.92 0 -7.54 -.44 -8.3&#xA;-1.38 -1.16 -1.44 -12.29 -2.98 -12.98 -1.79z" fill="#4f41ab" fill-rule="evenodd" stroke="#4f41ab" stroke-linejoin="round" stroke-width="0.80"/>
<path d="M993 534.01 c-1.81 6.07 -1.96 7.68 -.94 9.6 2.89 5.4 -.99 22.39 -11.11&#xA;48.69 -5.3 13.78 -10.09 22.7 -17.3 32.19 -2.5 3.3 -6.04 7.98 -7.85 10.39&#xA;-15.27 20.33 -39.5 41.85 -58.3 51.78 -3.85 2.03 -9.61 5.38 -12.8 7.44 -9.96&#xA;6.43 -25.92 11.76 -50.7 16.93 -8.89 1.85 -14.72 2.26 -38 2.62 -15.12 .24&#xA;-27.89 .82 -28.36 1.3 -.48 .48 -.53 1.4 -.13 2.05 1.11 1.79 8.6 4.94 11.82&#xA;4.96 1.56 .01 6.28 .89 10.5 1.96 9.4 2.37 22.8 4.1 38.67 4.97 13.81 .76&#xA;18.56 -.17 35.71 -6.99 31.03 -12.33 60.49 -31.39 85.64 -55.4 13.86 -13.24&#xA;30.75 -33.74 31.73 -38.52 .28 -1.38 1.45 -4.75 2.61 -7.5 1.15 -2.75 3.39&#xA;-8.74 4.97 -13.3 1.58 -4.57 3.59 -9.39 4.46 -10.73 .87 -1.33 1.96 -3.9 2.41&#xA;-5.7 .45 -1.8 1.57 -6.2 2.48 -9.77 5.64 -22.1 5.8 -23.04 5.15 -31.86 -.68&#xA;-9.37 -3.09 -17.01 -6.39 -20.32 l-2.1 -2.1 -2.17 7.29z M828.8 674.87 c-.71&#xA;.2 -2.65 .97 -4.3 1.7 -1.65 .73 -5.52 1.96 -8.61 2.75 -4.49 1.14 -6.3 2.2&#xA;-9.72 5.91 -7.84 8.5 -18.56 14.54 -32.24 18.1 -4.91 1.28 -7.07 2.38 -6.93&#xA;3.14 .14 .76 2.67 1.2 7.75 .85 7.46 -.51 21.78 -4.23 33.21 -8.62 12.51&#xA;-4.81 30.02 -18.47 30.04 -23.42 0 -1.15 -5.72 -1.4 -9.2 -.4z" fill="#964cc9" fill-rule="evenodd" stroke="#964cc9" stroke-linejoin="round" stroke-width="0.80"/>
<path d="M558.67 417.82 c-2.92 3.05 -9.04 20.63 -13.23 38.03 -1.37 5.7 -3.21 11.73&#xA;-4.08 13.42 -.87 1.68 -2.19 6.25 -2.93 10.14 -2.45 12.85 -3.43 17.03 -5.17&#xA;22.08 -1.36 3.96 -1.69 8.07 -1.55 19.73 .09 8.1 -.22 14.97 -.69 15.26 -.99&#xA;.61 2.56 14.46 6.53 25.51 5.69 15.84 18.49 40.02 26.62 50.3 2.28 2.88 2.74&#xA;4.12 1.91 5.12 -1.86 2.24 .97 3.82 4.6 2.55 l2.97 -1.03 -5.66 -11.21 c-3.11&#xA;-6.17 -7.75 -15.22 -10.3 -20.12 -8.52 -16.36 -12.59 -31.96 -12.02 -46.09&#xA;.22 -5.5 .57 -15.62 .78 -22.5 .21 -6.88 .83 -14.52 1.38 -17 .55 -2.48 1.24&#xA;-8.1 1.52 -12.5 1.66 -25.49 3.52 -42.5 4.65 -42.5 .41 0 1.28 -2.76 1.95&#xA;-6.12 .66 -3.37 2.46 -10.35 4 -15.52 1.54 -5.17 2.47 -9.6 2.08 -9.84 -.39&#xA;-.24 -1.9 .79 -3.35 2.31z M511 561.96 c0 3.25 8.54 24.29 15.01 36.98 l6.08&#xA;11.93 3.5 -.57 c2.62 -.43 4.05 -.08 5.71 1.4 3.9 3.46 12 8.31 13.88 8.31&#xA;1.01 0 1.66 .31 1.66 .9 0 .59 1.41 1.09 2.92 .92 2.1 -.24 2.68 -.79 2.45&#xA;-2.32 -.49 -3.28 -9.57 -15.76 -12.75 -17.52 -3.27 -1.81 -5.89 -5.12 -15.45&#xA;-19.53 -7.93 -11.95 -14.44 -19.29 -18.72 -21.09 -4.14 -1.75 -4.28 -1.73&#xA;-4.28 .6z M545.5 648.11 c-7.51 1.65 -43.98 6.71 -53.5 7.43 -6.79 .51 -10.15&#xA;1.23 -11.78 2.51 -1.25 .99 -3.98 2.08 -6.05 2.43 -3.9 .66 -10.17 4.84 -9.01&#xA;6.01 .36 .36 3.27 .66 6.46 .66 3.19 0 6.18 .23 6.63 .51 .45 .28 4.75 .65&#xA;9.54 .81 4.79 .17 10.41 .63 12.48 1.03 3.27 .63 4.02 .4 5.68 -1.71 1.21&#xA;-1.53 4.25 -3.11 8.23 -4.27 3.48 -1.01 8.43 -2.95 11.01 -4.31 2.58 -1.36&#xA;5.38 -2.2 6.22 -1.88 1.52 .58 6.13 -.56 10.24 -2.53 1.19 -.57 2.62 -.75&#xA;3.18 -.4 1.66 1.02 8.92 -2.36 9.45 -4.41 .84 -3.23 -.93 -3.61 -8.79 -1.88z" fill="#2d56a5" fill-rule="evenodd" stroke="#2d56a5" stroke-linejoin="round" stroke-width="0.80"/>
<path d="M804.64 274.29 l-3.86 3.26 3.01 3.22 c1.67 1.79 4.06 3.25 5.36 3.28 5.47&#xA;.13 10.05 .94 13.1 2.3 1.79 .8 5.16 1.68 7.49 1.95 2.33 .27 6.15 1.41 8.5&#xA;2.53 2.35 1.12 9.11 4.09 15.04 6.61 27.8 11.8 51.47 28.23 73.75 51.18 6.34&#xA;6.53 13.71 14.93 16.37 18.67 4.32 6.06 5.14 6.74 7.48 6.23 1.97 -.43 3.87&#xA;.31 7.63 2.96 2.75 1.94 6.58 4.59 8.51 5.88 1.93 1.29 5.72 5 8.42 8.24 8.93&#xA;10.71 13.89 15.39 16.29 15.39 1.39 0 4.65 2.17 8.28 5.5 3.29 3.02 6.9 5.5&#xA;8.02 5.5 2.97 0 3.7 -2.93 1.22 -4.88 -1.14 -.89 -2.8 -3.42 -3.7 -5.62 -3.48&#xA;-8.57 -4.06 -9.5 -5.94 -9.5 -1.05 0 -4.32 -2.28 -7.28 -5.08 -4.59 -4.34&#xA;-5.77 -4.99 -8.18 -4.46 -2.5 .55 -3.14 .13 -5.62 -3.67 -5.02 -7.7 -9.75&#xA;-12.95 -14.56 -16.15 -4.03 -2.68 -15.56 -11.38 -27.36 -20.64 -9.46 -7.43&#xA;-18.68 -15.4 -23.11 -20 -2.75 -2.85 -7.25 -6.66 -10 -8.46 -2.75 -1.8 -9.27&#xA;-6.98 -14.5 -11.5 -5.23 -4.53 -11.08 -9.25 -13 -10.49 -12.94 -8.38 -17.27&#xA;-10.8 -27.27 -15.27 -13.02 -5.81 -17.25 -7.26 -21.3 -7.31 -1.61 -.02 -5.63&#xA;-.69 -8.93 -1.48 -8.38 -2.02 -9.49 -1.88 -13.86 1.81z M1056.02 356.28&#xA;c-7.25 .82 -9.93 2.2 -8 4.14 .64 .64 1.67 .55 3.21 -.27 3.08 -1.65 26.74&#xA;-1.15 28.59 .6 .73 .69 2.08 1.26 3 1.27 .92 .01 2.73 .83 4.01 1.81 2.29&#xA;1.77 2.39 1.74 6.46 -1.98 2.27 -2.08 3.9 -4.01 3.61 -4.29 -2.31 -2.31&#xA;-25.36 -3.03 -40.88 -1.28z M1028.11 360.6 c-7.9 1.43 -10.28 2.44 -5.53 2.33&#xA;3.84 -.08 14.08 -2.27 15.02 -3.2 .91 -.91 -.24 -.81 -9.49 .87z M1008.5 365&#xA;c-.34 .55 -1.44 1 -2.45 1 -2.56 0 -3.2 3.55 -1.92 10.58 .59 3.26 1.44 7.95&#xA;1.89 10.42 .67 3.67 2.95 11.86 6.69 24 .29 .94 1.04 .07 2.02 -2.34 1.29&#xA;-3.19 1.37 -4.45 .44 -7.47 -.75 -2.44 -.79 -3.96 -.14 -4.61 1.56 -1.56 1.21&#xA;-3.01 -3.09 -12.81 -2.23 -5.1 -4.34 -9.9 -4.67 -10.68 -.39 -.91 -.23 -1.27&#xA;.53 -.81 .69 .43 1.2 .24 1.2 -.61 0 -.8 .67 -1.71 1.5 -2.03 .83 -.32 1.5&#xA;-1.26 1.5 -2.11 0 -.84 .56 -1.54 1.25 -1.55 1 -.01 .95 -.21 -.25 -.98 -1.94&#xA;-1.26 -3.72 -1.26 -4.5 0z M966 526.95 c-2.34 .72 -8.31 3.56 -19 9.03 -2.48&#xA;1.27 -6.3 3.19 -8.5 4.28 -8.48 4.19 -37.97 19.67 -68.5 35.95 -4.67 2.49&#xA;-13.67 7.18 -20 10.42 -9.08 4.65 -10.96 5.95 -8.93 6.18 7.69 .9 132.44&#xA;-62.96 129.24 -66.16 -.74 -.74 -.97 -.73 -4.31 .3z" fill="#6a53ca" fill-rule="evenodd" stroke="#6a53ca" stroke-linejoin="round" stroke-width="0.80"/>
<path d="M600.45 346.29 c-6.08 6.22 -12.38 13.18 -14 15.47 -1.62 2.29 -5.58 7.67&#xA;-8.79 11.95 -15.32 20.43 -27.22 41.07 -31.64 54.88 -1.22 3.8 -3.46 9.83&#xA;-4.98 13.41 -1.52 3.58 -3.35 9.2 -4.07 12.5 -.72 3.3 -2.08 7.58 -3.02 9.5&#xA;-1.88 3.83 -4.55 18.2 -5.56 30 -.36 4.12 -1.21 8.17 -1.89 9 -1.3 1.57 -.92&#xA;7.29 1.59 24 1.2 7.99 2.24 10.2 4.43 9.36 1.07 -.41 1.33 -3.62 1.2 -15.19&#xA;-.13 -11.6 .19 -15.71 1.56 -19.67 1.74 -5.06 2.72 -9.23 5.17 -22.08 .74&#xA;-3.9 2.05 -8.44 2.9 -10.09 .86 -1.65 2.51 -7.02 3.68 -11.92 4.17 -17.44&#xA;11.01 -37.28 13.55 -39.28 1.3 -1.03 2.17 -2.07 1.93 -2.31 -.63 -.63 3.41&#xA;-11.02 4.98 -12.82 1.94 -2.23 6.53 -11.7 6.53 -13.47 0 -.84 .9 -2.43 2&#xA;-3.53 1.1 -1.1 2 -2.69 2 -3.53 0 -.84 .67 -1.79 1.5 -2.11 .83 -.32 1.5&#xA;-1.35 1.5 -2.3 0 -.95 1.8 -3.68 4 -6.06 2.2 -2.38 4 -4.91 4 -5.62 0 -.71&#xA;.61 -1.64 1.36 -2.08 .75 -.44 3.72 -3.65 6.61 -7.14 2.89 -3.48 8.14 -9.3&#xA;11.68 -12.93 5.94 -6.09 7.34 -9.22 4.13 -9.25 -.7 -.01 -6.25 5.08 -12.33&#xA;11.3z M504.77 537.57 c-.59 .59 -.1 2.86 3.43 15.79 2.06 7.53 2.31 7.93 6.23&#xA;9.64 5.92 2.58 9.08 6.39 23.84 28.77 4.97 7.53 9.47 12.23 11.71 12.23 1.12&#xA;0 2.03 -.2 2.03 -.44 0 -.24 -2.52 -4.58 -5.6 -9.64 -3.08 -5.06 -7.35 -12.85&#xA;-9.49 -17.31 -2.14 -4.46 -5.16 -9.23 -6.71 -10.61 -1.55 -1.38 -5.4 -7 -8.56&#xA;-12.5 -7.4 -12.9 -13.83 -18.98 -16.87 -15.93z M482 565.57 c-5.77 4.06&#xA;-12.75 8.9 -15.5 10.76 -7.51 5.08 -26.38 21.71 -31.56 27.8 -9.6 11.3 -13.94&#xA;19.34 -13.94 25.82 0 4.66 4.93 12.41 9.05 14.23 1.62 .72 2.95 1.83 2.95&#xA;2.48 0 .65 1.46 1.48 3.25 1.85 1.79 .37 5.12 1.29 7.41 2.04 6.63 2.18 19.94&#xA;3.56 23.02 2.38 4.33 -1.64 1.1 -3.38 -10.18 -5.48 -12.4 -2.31 -21.01 -6&#xA;-25.26 -10.83 -2.83 -3.22 -3.24 -4.4 -3.24 -9.34 0 -7.51 2.39 -12.19 11.59&#xA;-22.72 8.1 -9.26 10.99 -11.26 16.97 -11.75 3.25 -.26 4.52 -1.07 7.55 -4.82&#xA;4.09 -5.07 17.88 -18.47 25.31 -24.61 8.46 -6.98 3.58 -5.55 -7.42 2.18z&#xA;M451.79 656.75 c-.57 .69 -1.81 1.25 -2.76 1.25 -.95 0 -2.51 .87 -3.47 1.94&#xA;-1.7 1.88 -1.63 1.97 2.26 3.01 2.2 .59 6.63 1.33 9.82 1.63 3.2 .3 6.37 1.01&#xA;7.04 1.57 .87 .72 1.86 .43 3.39 -1 1.19 -1.11 3.96 -2.32 6.15 -2.69 4.19&#xA;-.71 8.58 -4.08 7.13 -5.48 -1.5 -1.44 -28.38 -1.65 -29.56 -.24z" fill="#4377cd" fill-rule="evenodd" stroke="#4377cd" stroke-linejoin="round" stroke-width="0.80"/>
<path d="M751.5 264.1 c-18.38 1.79 -52.36 8.93 -55.84 11.74 -1.35 1.09 -13.89 6.16&#xA;-15.23 6.16 -2.07 0 -25.36 12.62 -30.61 16.58 -3.12 2.36 -7.17 5.06 -9 6&#xA;-2.88 1.48 -11.26 7.56 -26.25 19.04 -7.67 5.87 -27.09 25.95 -36.69 37.92&#xA;-24.58 30.66 -36.46 54.4 -45.51 90.96 -1.36 5.5 -2.94 11.48 -3.5 13.29&#xA;-1.36 4.35 -2.99 33.7 -2.02 36.33 1.31 3.54 2.82 .07 3.53 -8.12 1.02 -11.83&#xA;3.69 -26.18 5.57 -30 .95 -1.92 2.31 -6.2 3.02 -9.5 .72 -3.3 2.55 -8.92 4.07&#xA;-12.5 1.52 -3.58 3.76 -9.61 4.98 -13.41 4.43 -13.82 16.32 -34.45 31.64&#xA;-54.88 3.21 -4.28 7.08 -9.53 8.59 -11.65 5.46 -7.66 21.77 -23.91 25.13&#xA;-25.02 1.81 -.6 4.56 -2.41 6.11 -4.03 1.55 -1.62 3.2 -2.71 3.66 -2.42 .47&#xA;.29 .85 .04 .85 -.55 0 -1.41 6.15 -6.98 7.75 -7.02 1.34 -.03 11.09 -6.69&#xA;12.75 -8.71 .55 -.67 1.67 -1.35 2.5 -1.52 .82 -.17 1.96 -.89 2.53 -1.61 .57&#xA;-.72 1.72 -1.41 2.57 -1.53 .85 -.12 2.68 -1.13 4.09 -2.23 1.4 -1.1 4.41&#xA;-2.84 6.69 -3.87 2.28 -1.03 4.14 -2.36 4.14 -2.96 .01 -2.06 6.82 -5.74&#xA;20.64 -11.17 7.59 -2.98 14.16 -5.42 14.6 -5.42 .44 0 4.9 -1.6 9.89 -3.55&#xA;8.3 -3.24 22.91 -7.02 36.86 -9.54 11.55 -2.09 53.32 -.46 57.59 2.15 .55 .34&#xA;1.86 .26 3.03 .11 1.16 -.15 5.13 .43 8.81 1.28 9.24 2.14 11.93 2.08 10.69&#xA;-.24 -1.5 -2.8 -21.78 -7.42 -40.11 -9.14 -17.31 -1.62 -28 -1.9 -37.5 -.97z" fill="url(#grad21)" fill-rule="evenodd" stroke="none"/>
<path d="M995.32 246.44 c-12.34 3.86 -21.08 14.59 -22.08 27.13 -.68 8.41 2.95 16.58&#xA;10.38 23.37 12.72 11.63 30.18 10.87 41.58 -1.81 5.84 -6.5 8.29 -13.26 8.18&#xA;-22.62 -.1 -8.71 -2.36 -13.5 -9.34 -19.77 -8.04 -7.23 -18.43 -9.51 -28.72&#xA;-6.29z" fill="url(#grad37)" fill-rule="evenodd" stroke="none"/>
<path d="M732.88 256.52 c-34.23 3.74 -76.17 19.35 -106.62 39.69 -14.49 9.68 -38.96&#xA;32.36 -47.79 44.29 -1.63 2.2 -7.06 9.17 -12.08 15.5 -11.84 14.93 -19.9&#xA;28.48 -27.16 45.64 -3.95 9.34 -5.89 13.91 -7.26 17.79 -1.37 3.88 -2.18 7.06&#xA;-3.85 13.62 -6.34 24.81 -9.07 47.3 -9.33 76.95 -.2 22.42 -0 23.58 8.08 47&#xA;4.59 13.32 6.79 17.84 7.65 15.74 .4 -.97 .43 -2.77 .06 -4 -3.8 -12.89 -7.32&#xA;-31.86 -7.37 -39.74 -.02 -3.02 -.52 -6.77 -1.12 -8.32 -1.24 -3.25 -1.45&#xA;-12.34 -.3 -13.05 .43 -.27 .9 -10.3 1.05 -22.31 .38 -31.45 3.32 -47.29 13.9&#xA;-74.83 4.94 -12.84 21.18 -40.82 28.68 -49.38 1.74 -1.99 5.8 -7.11 9.03&#xA;-11.38 3.22 -4.27 9.73 -11.24 14.46 -15.49 4.73 -4.25 12.98 -11.74 18.32&#xA;-16.63 5.34 -4.9 10.79 -9.63 12.11 -10.51 40.28 -27.04 53.13 -33.3 89.51&#xA;-43.6 15.04 -4.26 32.31 -5.82 57.17 -5.18 25.52 .66 37.09 2.41 64.12 9.7&#xA;4.56 1.23 5.88 1.23 5.88 -0 0 -3.33 -19.84 -8.86 -41.16 -11.47 -15.25 -1.87&#xA;-49 -1.88 -65.96 -.03z" fill="url(#grad33)" fill-rule="evenodd" stroke="none"/>
<path d="M524.69 506.79 c-1.95 2.15 -2.28 9.55 -.61 13.89 .59 1.55 1.09 5.29 1.12&#xA;8.32 .04 5.91 3.06 24.03 5.5 33 .82 3.02 1.83 7.13 2.24 9.13 .87 4.24 8.17&#xA;18.03 15.37 29.07 5.73 8.77 7.7 9.04 7.29 1 -.18 -3.44 -2.01 -8.31 -6.85&#xA;-18.19 -10.59 -21.62 -17.64 -44.64 -19.85 -64.85 -1.39 -12.68 -1.86 -13.96&#xA;-4.21 -11.36z M828 554.75 c-.83 .28 -2.52 1.43 -3.77 2.57 -1.25 1.14 -3.5&#xA;2.16 -5 2.28 -1.5 .12 -15.55 5.39 -31.23 11.71 -52.3 21.1 -104.44 38.65&#xA;-155 52.17 l-19.5 5.21 -.31 3.65 c-.19 2.18 .13 3.65 .79 3.65 4.21 0 68.97&#xA;-17.69 92.02 -25.13 39.87 -12.88 92.87 -32.31 94.61 -34.68 .61 -.83 1.81&#xA;-1.24 2.67 -.91 .92 .35 1.81 -.04 2.15 -.94 .33 -.87 1.24 -1.29 2.09 -.96&#xA;2.08 .8 6.15 -1.22 7.93 -3.93 .81 -1.24 3.99 -3.69 7.05 -5.44 5.79 -3.31&#xA;9.48 -7.48 7.9 -8.93 -.49 -.45 -1.57 -.6 -2.4 -.32z M575.5 617.35 c-4.95&#xA;1.21 -8.55 2.43 -8 2.71 .55 .28 5.73 -.71 11.5 -2.19 5.77 -1.48 9.38 -2.7 8&#xA;-2.71 -1.38 -.01 -6.55 .98 -11.5 2.19z" fill="#89b8fc" fill-rule="evenodd" stroke="#89b8fc" stroke-linejoin="round" stroke-width="0.80"/>
<path d="M988.07 539.75 c-.73 2.06 -2.14 5.55 -3.11 7.75 -.98 2.2 -3.19 7.64 -4.93&#xA;12.08 -3.33 8.56 -5.87 12.96 -15.53 26.93 -3.3 4.77 -6.9 10.15 -8 11.94&#xA;-2.54 4.14 -14.13 17.66 -27.08 31.57 -14.94 16.07 -37.4 34.48 -54.42 44.62&#xA;-2.48 1.47 -5.62 3.67 -7 4.88 -5.85 5.16 -23.26 12.89 -41.84 18.58 -12.38&#xA;3.79 -38.05 8.89 -44.75 8.89 -4.81 0 -5.26 .21 -6.43 3.03 -.69 1.67 -.96&#xA;3.25 -.63 3.57 .32 .32 4.07 .16 8.35 -.43 4.29 -.59 11.17 -1.35 15.3 -1.69&#xA;9.89 -.82 30.03 -5.55 48 -11.27 52.57 -16.73 99.58 -57.65 125.5 -109.22&#xA;8.88 -17.66 14.45 -31.21 17.43 -42.37 1.78 -6.67 2.76 -9.91 2.97 -11.4 .21&#xA;-1.49 -.35 -1.23 -1.19 -1.23 -.71 0 -1.9 1.69 -2.63 3.75z" fill="url(#grad36)" fill-rule="evenodd" stroke="none"/>
<path d="M988.63 538.25 c-1.03 3.83 -.64 4.34 1.4 1.89 2.31 -2.77 2.5 -4.14 .58&#xA;-4.14 -.76 0 -1.65 1.01 -1.99 2.25z M984.23 549.26 c-.55 .68 -1.33 2.81&#xA;-1.74 4.72 -.67 3.12 -.58 3.34 .85 2.15 .88 -.73 1.52 -1.62 1.42 -1.98 -.1&#xA;-.36 .37 -1.64 1.03 -2.84 1.36 -2.45 .1 -4.11 -1.56 -2.05z M834.5 702 c-.35&#xA;.57 -1.01 .81 -1.46 .53 -.45 -.28 -1.43 .24 -2.18 1.15 -1.23 1.49 -1.07&#xA;1.58 1.64 .92 3.6 -.88 5.09 -2.11 3.66 -3 -.58 -.36 -1.29 -.19 -1.66 .4z" fill="url(#grad36)" fill-rule="evenodd" stroke="none"/>
<path d="M732.89 259.46 c-5.84 .75 -14.89 2.57 -20.05 4.04 -36.53 10.36 -49.2 16.54&#xA;-89.51 43.6 -1.32 .88 -6.76 5.61 -12.11 10.51 -5.34 4.9 -13.59 12.38 -18.32&#xA;16.63 -4.73 4.25 -11.24 11.22 -14.46 15.49 -3.22 4.27 -7.28 9.39 -9.03&#xA;11.38 -7.5 8.56 -23.75 36.54 -28.68 49.38 -8.25 21.47 -13.91 45.9 -13.6&#xA;58.73 l.13 5.27 .79 -4 c3.32 -16.92 9.55 -38.67 14.74 -51.5 3.51 -8.66&#xA;13.94 -28.99 16.17 -31.5 .98 -1.1 3.48 -4.7 5.55 -8 9.46 -15.03 37.31&#xA;-46.11 50.07 -55.88 14.99 -11.48 23.36 -17.55 26.25 -19.04 1.83 -.94 5.88&#xA;-3.64 9 -6 5.25 -3.97 28.54 -16.58 30.61 -16.58 1.34 0 13.88 -5.07 15.23&#xA;-6.16 2.09 -1.69 23.54 -6.9 38.84 -9.45 26.41 -4.39 55.32 -3.22 82.5 3.34&#xA;8.01 1.93 23.28 2.61 22.74 1 -.59 -1.76 -21.36 -7.28 -38.74 -10.3 -12.24&#xA;-2.12 -54.43 -2.72 -68.11 -.97z" fill="url(#grad27)" fill-rule="evenodd" stroke="none"/>
<path d="M1068 359 c0 .55 1.69 .99 3.75 .98 2.79 -.01 3.37 -.26 2.25 -.98 -1.97&#xA;-1.27 -6 -1.27 -6 0z M1113.33 375.88 c-1.2 1 -2.85 3.43 -3.67 5.41 -.83&#xA;1.98 -3.27 5.98 -5.44 8.9 -5.16 6.96 -24.82 25.92 -33.79 32.57 -6.27 4.66&#xA;-7.03 5.57 -6.66 8.05 .26 1.75 -.18 3.29 -1.17 4.11 -.87 .72 -1.59 1.97&#xA;-1.59 2.78 0 1.57 8.11 -4.45 21 -15.58 22.95 -19.82 33.15 -32.67 34.65&#xA;-43.62 .68 -4.93 .04 -5.43 -3.33 -2.62z M837.71 552.11 c-1.5 .86 -3.7 1.37&#xA;-7.85 1.82 -.35 .04 -.92 1.16 -1.25 2.5 -.4 1.58 -2.51 3.52 -6.06 5.54&#xA;-5.07 2.9 -11.19 8.73 -10.2 9.71 .24 .24 9.02 -3.19 19.51 -7.63 10.5 -4.43&#xA;19.61 -8.26 20.18 -8.26 1.47 0 1.21 -2.79 -.29 -3.25 -3.52 -1.09 -12.43&#xA;-1.36 -14.04 -.44z M601 631.56 c-14.73 3.78 -44.84 10.1 -59 12.4 -3.02 .49&#xA;-9.1 1.6 -13.5 2.48 -22.11 4.38 -69.38 6.17 -81 3.07 -15.08 -4.02 -16.06&#xA;-4.1 -13.52 -1.04 .69 .84 1.03 2.4 .75 3.49 -.28 1.08 0 2.38 .63 2.88 1.81&#xA;1.44 14.67 4.36 16.36 3.71 .84 -.32 12.16 -.75 25.15 -.94 23.49 -.35 39.99&#xA;-2.18 72.13 -8.01 4.12 -.75 10.65 -1.89 14.5 -2.54 8.14 -1.37 21.62 -4.19&#xA;36.5 -7.65 5.77 -1.34 11.51 -2.67 12.75 -2.95 1.8 -.41 2.25 -1.2 2.25 -3.99&#xA;0 -4.28 -.7 -4.33 -14 -.92z M647 687.83 c0 .46 5.73 3.59 12.73 6.97 10.87&#xA;5.25 12.86 5.91 13.6 4.57 1.19 -2.13 .46 -2.59 -9.33 -5.81 -4.67 -1.54&#xA;-10.17 -3.64 -12.21 -4.68 -4.15 -2.11 -4.79 -2.25 -4.79 -1.05z M682.6&#xA;701.59 c-1 2.6 -.03 3.14 9.66 5.44 16.95 4.03 22.19 5.01 29.88 5.63 7.31&#xA;.59 7.67 .52 8.36 -1.65 .96 -3.03 -.76 -3.98 -7.26 -4 -6.52 -.02 -21.4&#xA;-2.37 -31.75 -5.02 -4.29 -1.1 -7.91 -2 -8.04 -2 -.13 0 -.51 .72 -.84 1.59z" fill="#b2e3fe" fill-rule="evenodd" stroke="#b2e3fe" stroke-linejoin="round" stroke-width="0.80"/>
<path d="M617.05 664.88 c-2.34 .65 -2.17 .91 3.5 5.25 10.13 7.77 33.24 20.86 36.82&#xA;20.86 .78 0 1.53 -.49 1.85 -1.31 .81 -2.11 2.97 -2.07 13.77 1.34 5.21 1.65&#xA;13.54 3.69 18.5 4.54 4.96 .85 12.85 2.46 17.52 3.58 10.04 2.4 31.17 3.06&#xA;37.5 1.16 2.2 -.66 5.18 -1.44 6.63 -1.74 1.45 -.3 4.14 -1.95 5.98 -3.66&#xA;l3.33 -3.11 -4.42 -3.77 c-4 -3.41 -5.14 -3.83 -11.97 -4.43 -4.15 -.37 -9.8&#xA;-.91 -12.55 -1.2 -4.91 -.53 -21.48 -3.56 -26.61 -4.87 -2.3 -.59 -2.68 -.32&#xA;-3.2 2.29 -.94 4.72 -3.18 6.28 -8.01 5.63 -4.23 -.57 -13.69 -4.24 -14.77&#xA;-5.72 -.32 -.44 -1.17 -.11 -1.87 .74 -2.88 3.47 -18.18 .1 -36.04 -7.92&#xA;-5.77 -2.59 -12.42 -5.58 -14.78 -6.63 -4.42 -1.97 -6.95 -2.2 -11.18 -1.02z" fill="url(#gradA1)" fill-rule="evenodd" stroke="none"/>
<path d="M730.8 232.54 c-.29 .29 -3.12 .77 -6.27 1.07 -3.16 .29 -6.84 .95 -8.2 1.46&#xA;-1.35 .51 -3.69 .93 -5.2 .93 -3.51 0 -19.32 3.92 -20.58 5.11 -.52 .49 -2.12&#xA;.89 -3.55 .89 -4.75 0 -36 11.35 -36 13.07 0 .48 .73 .58 1.66 .22 1.12 -.43&#xA;1.43 -.26 .94 .53 -.4 .64 -1.29 1.17 -1.99 1.17 -.7 0 -2.33 1.13 -3.62 2.51&#xA;-1.3 1.38 -6.66 4.8 -11.92 7.59 -15.58 8.28 -36.07 24.76 -36.07 29 0 4.38&#xA;1.29 3.84 25.5 -10.68 6.6 -3.96 14.88 -8.41 18.4 -9.89 3.52 -1.48 7.35 -3.3&#xA;8.5 -4.05 3.58 -2.32 28.59 -11.29 39.1 -14.01 28.64 -7.43 43.98 -9.3 79&#xA;-9.63 11.55 -.11 18.75 -.36 16 -.54 -2.75 -.19 -6 -.88 -7.22 -1.5 -2.63&#xA;-1.34 -39.85 -.52 -58.64 1.27 -10.28 .98 -12.06 .94 -13.33 -.33 -2.21 -2.21&#xA;2.15 -5.16 9.89 -6.67 12.06 -2.35 18.8 -4.92 18.8 -7.18 0 -.94 -4.32 -1.23&#xA;-5.2 -.34z" fill="url(#grad32)" fill-rule="evenodd" stroke="none"/>
<path d="M828.62 271.81 c-.83 1.34 1.82 4.47 3.98 4.7 3.7 .39 25.94 10.79 33.59&#xA;15.71 2.92 1.88 7.11 4.57 9.31 6 2.2 1.42 8.27 6.29 13.5 10.82 5.23 4.53&#xA;11.75 9.7 14.5 11.5 2.75 1.8 7.25 5.61 10 8.46 4.43 4.6 13.65 12.57 23.11&#xA;20 11.89 9.33 23.34 17.97 27.45 20.7 3.16 2.1 6.97 6.28 11.11 12.16 5.18&#xA;7.36 6.6 8.8 8 8.05 2.82 -1.51 3.74 -1.11 9.23 4.09 5.41 5.11 9.62 6.55&#xA;9.57 3.25 -.05 -3.39 -6.45 -13.69 -9.97 -16.04 -4.69 -3.13 -25.01 -19.55&#xA;-31.39 -25.35 -8.23 -7.49 -15.88 -12.85 -18.33 -12.85 -2.19 0 -14.36 -10.93&#xA;-31.27 -28.1 -5.86 -5.95 -10.91 -9.83 -30.51 -23.41 -10.18 -7.06 -23.65&#xA;-14.23 -31.5 -16.77 -8.34 -2.7 -19.52 -4.29 -20.38 -2.9z" fill="url(#grad23)" fill-rule="evenodd" stroke="none"/>
<path d="M989.47 546.79 c-.86 3.14 -2.48 8.69 -3.6 12.33 -1.12 3.64 -1.91 7.47 -1.77&#xA;8.5 .64 4.5 -2.17 13.03 -10.02 30.38 -10.61 23.46 -18.38 34.43 -38.55 54.5&#xA;-20.61 20.51 -28.26 26.29 -50.53 38.19 -14.89 7.96 -24.17 11.29 -43.5 15.61&#xA;-12.49 2.8 -13.85 2.81 -22.97 3.09 -4.95 .16 -15.51 1.29 -23.42 2.29 -13.41&#xA;1.7 -14.21 1.92 -11.78 3.22 3.98 2.13 36.83 .89 50.67 -1.92 24.19 -4.91&#xA;40.68 -10.39 50.7 -16.87 3.19 -2.06 8.95 -5.41 12.8 -7.44 18.95 -10.01&#xA;44.62 -32.91 60.3 -53.78 1.81 -2.41 5.35 -7.09 7.85 -10.39 7.21 -9.5 12&#xA;-18.41 17.3 -32.19 11.56 -30.05 15.06 -48.55 9.58 -50.66 -1.12 -.43 -1.88&#xA;.84 -3.06 5.14z" fill="url(#gradA13)" fill-rule="evenodd" stroke="none"/>
<path d="M745.19 230.96 c-6.59 .62 -8.6 1.19 -9.7 2.76 -1.46 2.08 -7.79 4.28 -18.29&#xA;6.35 -7.74 1.52 -12.1 4.46 -9.89 6.67 1.27 1.27 3.05 1.31 13.33 .33 18.32&#xA;-1.75 55.99 -2.55 58.64 -1.27 1.22 .59 5.37 1.32 9.22 1.65 3.85 .33 12.1&#xA;1.06 18.34 1.63 8.69 .78 11.68 .74 12.78 -.17 1 -.83 4.01 -1.01 9.88 -.6&#xA;8.88 .63 11.07 -.16 8.26 -2.97 -1.55 -1.55 -6.24 -3 -13.76 -4.24 -2.48 -.41&#xA;-6.75 -1.48 -9.5 -2.38 -2.75 -.9 -8.38 -2.17 -12.5 -2.81 -4.12 -.65 -9.47&#xA;-2.02 -11.88 -3.04 -5.1 -2.17 -30.62 -3.25 -44.93 -1.9z" fill="url(#grad26)" fill-rule="evenodd" stroke="none"/>
<path d="M804.46 681.06 c-.36 .58 -1.62 .97 -2.81 .85 -1.18 -.11 -2.92 .12 -3.85 .53&#xA;-.93 .4 -5.32 .81 -9.75 .9 -4.43 .09 -8.05 .5 -8.06 .91 -0 .41 -5.74 .76&#xA;-12.75 .76 l-12.75 .01 3.98 3.37 3.98 3.37 -3.35 3.13 c-1.84 1.72 -4.53&#xA;3.36 -5.98 3.66 -1.45 .3 -4.43 1.08 -6.63 1.74 -6.33 1.9 -27.46 1.25 -37.5&#xA;-1.16 -4.67 -1.12 -12.56 -2.73 -17.52 -3.58 -4.96 -.85 -13.29 -2.89 -18.5&#xA;-4.54 -11.16 -3.52 -12.43 -3.83 -13.77 -1.34 -.92 1.71 -.04 2.43 11.6 6.17&#xA;28.61 9.21 39.58 11.05 70.46 11.83 22.38 .56 23.77 .56 25.73 -1.22 1.15&#xA;-1.04 4.37 -2.49 6.93 -3.14 13.73 -3.46 23.64 -9.02 32.24 -18.1 l4.97 -5.22&#xA;-3.01 0 c-1.66 0 -3.3 .48 -3.66 1.06z" fill="url(#gradA1)" fill-rule="evenodd" stroke="none"/>
<path d="M1113.94 387.11 c-.81 1.51 -.83 2.41 -.07 3.17 .75 .75 1.22 .57 1.59 -.61&#xA;.29 -.92 .74 -2.34 1 -3.17 .72 -2.3 -1.22 -1.83 -2.53 .61z M658.67 690.42&#xA;c-.62 1.61 1.95 3 2.86 1.54 .68 -1.1 -.25 -2.96 -1.48 -2.96 -.46 0 -1.08&#xA;.64 -1.38 1.42z M675.57 695.88 c-.78 1.26 -.2 1.57 6.36 3.51 6.79 2.01 7.66&#xA;2.02 6.08 .12 -.68 -.82 -1.65 -1.23 -2.17 -.91 -.51 .32 -1.59 .03 -2.39&#xA;-.63 -.8 -.66 -1.46 -.87 -1.46 -.46 0 .41 -.67 .18 -1.5 -.5 -.83 -.68 -1.5&#xA;-.91 -1.5 -.5 0 .41 -.63 .22 -1.41 -.43 -.97 -.81 -1.6 -.87 -2.02 -.19z&#xA;M716 705.5 c-1.06 1.27 -.83 1.5 1.5 1.5 2.33 0 2.56 -.23 1.5 -1.5 -.68 -.83&#xA;-1.36 -1.5 -1.5 -1.5 -.14 0 -.82 .67 -1.5 1.5z M728.69 705.64 c-1.07 1.07&#xA;.3 2.36 2.49 2.36 1.72 0 1.86 -.25 .82 -1.5 -1.34 -1.62 -2.3 -1.87 -3.31&#xA;-.86z" fill="url(#gradA1)" fill-rule="evenodd" stroke="none"/>
<path d="M983.1 565.78 c-.19 2.4 -15.78 33.7 -20.95 42.05 -16.09 25.98 -40.71 51.49&#xA;-65.65 68.01 -20.84 13.8 -47.83 25.2 -72.94 30.78 -7.16 1.59 -7.68 2.03&#xA;-5.03 2.77 2.85 .79 12.79 -.5 20.47 -2.46 1.92 -.49 7.55 -1.87 12.5 -3.07&#xA;11.3 -2.73 21.34 -6.68 33.5 -13.18 22.27 -11.9 29.92 -17.68 50.53 -38.19&#xA;20.31 -20.21 27.94 -31.03 38.74 -55 5.63 -12.49 6.99 -16.09 9.67 -25.5 .39&#xA;-1.38 .38 -3.62 -.02 -5 -.4 -1.38 -.77 -1.92 -.83 -1.22z" fill="url(#gradA13)" fill-rule="evenodd" stroke="none"/>
<path d="M822.02 706.79 c-5.31 1.33 -6.03 1.74 -4 2.26 1.36 .35 3.02 .21 3.69 -.3&#xA;.66 -.51 1.64 -.66 2.18 -.32 .57 .35 1.25 .15 1.64 -.48 .37 -.6 1.27 -.86 2&#xA;-.58 .73 .28 1.86 -.14 2.52 -.93 1.54 -1.86 .62 -1.82 -8.03 .35z" fill="url(#gradA13)" fill-rule="evenodd" stroke="none"/>
<path d="M527.63 387.95 c-1.96 2.72 -5.13 8.01 -7.06 11.75 -3.59 6.96 -7.99 12.48&#xA;-10.83 13.57 -1.01 .39 -1.83 2.38 -2.24 5.42 -.35 2.64 -1.02 5.71 -1.49&#xA;6.81 -.75 1.75 -4.23 23.73 -5.3 33.5 -.21 1.92 -.51 3.95 -.66 4.5 -.15 .55&#xA;-.23 4.92 -.16 9.72 .1 7.1 .42 8.6 1.57 8.16 2.41 -.93 5.3 3.16 6.62 9.28&#xA;1.52 7.06 2.64 9.34 4.39 9.34 1.04 0 1.38 -4.57 1.83 -21.25 .68 -25.37 2.12&#xA;-35.76 7.83 -56.81 2.62 -9.66 9.74 -29.88 12.05 -34.25 .69 -1.31 .63 -2.21&#xA;-.23 -3.25 -1.82 -2.19 -2.48 -1.83 -6.32 3.51z" fill="url(#gradA16)" fill-rule="evenodd" stroke="none"/>
<path d="M509.02 494.13 c.02 3.12 1.47 5.31 2.92 4.41 .85 -.53 .89 -1.05 .12 -1.97&#xA;-.57 -.69 -.81 -1.48 -.52 -1.77 .28 -.28 -.17 -1.08 -1.01 -1.78 -1.29 -1.07&#xA;-1.52 -.91 -1.51 1.11z M518.4 523.5 c.87 9.72 1.54 12.69 2.8 12.27 .62 -.21&#xA;.92 -.2 .97 -1.33 .05 -1.13 -.16 -3.39 -.58 -8.12 -.49 -5.59 -1.22 -8.6&#xA;-2.31 -9.5 -1.45 -1.2 -1.53 -.58 -.88 6.68z M527 556.12 c0 2.32 3.09 10.88&#xA;3.93 10.88 1.61 0 1.94 -1.37 .82 -3.38 -.65 -1.17 -1.25 -2.46 -1.34 -2.87&#xA;-.09 -.41 -.27 -.98 -.41 -1.25 -.14 -.27 -.31 -.93 -.38 -1.45 -.07 -.52&#xA;-.69 -1.51 -1.38 -2.2 -1.12 -1.12 -1.25 -1.09 -1.25 .27z" fill="url(#gradA16)" fill-rule="evenodd" stroke="none"/>
<path d="M454.5 592.93 c-5.16 1.25 -7.26 2.88 -14.91 11.63 -9.19 10.51 -11.59 15.21&#xA;-11.59 22.72 0 4.95 .4 6.1 3.24 9.34 5.79 6.59 19.8 11.06 42.26 13.47 6.14&#xA;.66 8.75 .98 11.03 1.04 2.27 .06 4.2 -.12 8.97 -.47 14.02 -1.03 27.72 -2.76&#xA;37.5 -4.73 5.23 -1.05 10.4 -1.92 11.5 -1.93 3.27 -.02 9.5 -2.02 9.5 -3.05 0&#xA;-1.34 -7.39 -1.18 -21.96 .48 -31.02 3.53 -48.26 4.82 -54.8 4.09 -3.71 -.41&#xA;-8.54 -.81 -10.74 -.89 -5.64 -.19 -20.02 -7.8 -22 -11.64 -2.12 -4.1 -1.86&#xA;-7.46 .81 -10.58 1.97 -2.29 2.63 -2.52 4.43 -1.56 3.68 1.97 5.22 .61 3.96&#xA;-3.49 -1.42 -4.63 .25 -11.02 4.84 -18.52 4.6 -7.51 4.6 -7.52 -2.04 -5.92z" fill="url(#grad10)" fill-rule="evenodd" stroke="none"/>
<path d="M468 648.5 c-1.06 1.27 -.83 1.5 1.5 1.5 2.33 0 2.56 -.23 1.5 -1.5 -.68 -.83&#xA;-1.36 -1.5 -1.5 -1.5 -.14 0 -.82 .67 -1.5 1.5z" fill="url(#grad10)" fill-rule="evenodd" stroke="none"/>
<path d="M755.5 270.16 c-4.95 .4 -10.35 1.18 -12 1.73 -1.65 .55 -7.33 1.9 -12.61&#xA;2.99 -5.29 1.09 -13.74 3.6 -18.75 5.56 -5.01 1.96 -9.45 3.55 -9.89 3.55&#xA;-1.97 0 -28.76 11.09 -31.82 13.17 -2.79 1.9 -4.64 4.83 -3.06 4.83 .9 0&#xA;10.18 -4.35 10.63 -4.98 .73 -1.02 8.89 -3.79 13.25 -4.5 2.06 -.34 3.75 -.98&#xA;3.75 -1.43 0 -2 26.72 -8.32 45 -10.65 13.86 -1.76 50.25 -1.65 53.19 .17 .71&#xA;.44 2.71 .67 4.45 .52 1.74 -.15 3.46 .21 3.82 .8 .36 .59 1.79 1.07 3.17&#xA;1.07 l2.51 0 -2.06 -2.89 -2.06 -2.89 2.16 -1.43 c1.19 -.79 1.77 -2.15 1.4&#xA;-2.74 -1.59 -2.57 -33.71 -4.3 -51.09 -2.89z" fill="url(#grad18)" fill-rule="evenodd" stroke="none"/>
<path d="M997.44 512.77 c-.58 .4 -1.5 4 -2.03 7.99 -.83 6.18 -.76 7.47 .49 8.72 2.71&#xA;2.71 5.12 10.96 5.76 19.66 .64 8.83 .49 9.77 -5.15 31.86 -.91 3.58 -2.03&#xA;7.97 -2.48 9.77 -.45 1.8 -1.53 4.36 -2.41 5.7 -.87 1.33 -2.88 6.16 -4.46&#xA;10.73 -1.58 4.57 -3.78 10.55 -4.9 13.3 -1.11 2.75 -2.47 6.35 -3.02 8 -.54&#xA;1.65 -1.33 3.9 -1.75 5 -1.04 2.74 4.51 -3.16 6.48 -6.89 .81 -1.53 2.49&#xA;-3.89 3.75 -5.24 1.26 -1.36 2.29 -3.13 2.29 -3.95 0 -.81 .67 -1.74 1.5&#xA;-2.06 .83 -.32 1.5 -1.44 1.5 -2.5 0 -1.06 .67 -2.18 1.5 -2.5 .83 -.32 1.5&#xA;-1.44 1.5 -2.5 0 -1.06 .61 -2.16 1.35 -2.44 1.46 -.56 5.15 -8.22 6.08 -12.6&#xA;.31 -1.47 1.15 -3.27 1.87 -4 2.19 -2.22 2.84 -4.93 1.56 -6.48 -.87 -1.05&#xA;-.94 -4.12 -.27 -12.12 1.36 -16.25 .97 -33.6 -.97 -42.72 -.94 -4.4 -1.91&#xA;-8.98 -2.17 -10.18 -.46 -2.18 -3 -5.33 -4.28 -5.3 -.37 .01 -1.15 .35 -1.74&#xA;.75z" fill="url(#grad14)" fill-rule="evenodd" stroke="none"/>
<path d="M500.51 508.98 c-.33 .54 -.11 2.8 .49 5.02 .6 2.23 .82 4.48 .5 5 -.33 .53&#xA;-.11 1.86 .48 2.96 .59 1.1 1.4 5.24 1.8 9.21 .71 7.09 .78 7.22 3.99 8.05&#xA;3.76 .97 6.02 3.88 14.58 18.79 3.47 6.04 6.21 9.82 6.75 9.29 .53 -.53 -.66&#xA;-5.56 -2.94 -12.35 -2.11 -6.3 -4.41 -13.83 -5.11 -16.74 -.7 -2.91 -2.12&#xA;-6.39 -3.16 -7.6 -3 -3.52 -6.72 -9.33 -9.87 -15.58 -1.61 -3.18 -3.82 -6.11&#xA;-4.72 -6.45 -2.12 -.81 -2.07 -.76 -2.79 .39z M553.67 597.75 c-2.25 8.53&#xA;5.88 23.25 12.84 23.25 3.6 0 3.28 -3.94 -.76 -9.26 -1.79 -2.35 -4.81 -6.85&#xA;-6.71 -10.01 -3.67 -6.09 -4.62 -6.79 -5.37 -3.98z M433 654.5 c-1.65 1.99&#xA;-1.09 2.51 5.89 5.43 4.09 1.71 5.91 2.01 7.5 1.25 1.16 -.55 2.89 -1.25 3.85&#xA;-1.56 3.37 -1.08 1.69 -2.23 -5.82 -3.98 -4.16 -.97 -8.14 -1.98 -8.84 -2.25&#xA;-.7 -.27 -1.87 .23 -2.59 1.1z" fill="#5b9aef" fill-rule="evenodd" stroke="#5b9aef" stroke-linejoin="round" stroke-width="0.80"/>
<path d="M780.21 265.64 c.92 .92 2.35 1.36 3.28 1.01 2.36 -.9 .87 -2.64 -2.26 -2.64&#xA;-2.46 0 -2.53 .12 -1.02 1.64z M727 267.38 c0 .21 .62 .89 1.37 1.51 1.14 .94&#xA;1.58 .88 2.62 -.38 1.07 -1.28 .86 -1.51 -1.37 -1.51 -1.44 0 -2.62 .17 -2.62&#xA;.38z M609.57 327.92 c-.93 1.03 -1.28 2.14 -.77 2.45 .51 .32 1.7 -.27 2.63&#xA;-1.3 .93 -1.03 1.28 -2.14 .77 -2.45 -.51 -.32 -1.7 .27 -2.63 1.3z M567.68&#xA;374.4 c-.3 .77 -.27 1.67 .05 1.99 .86 .86 3.35 -1.46 2.7 -2.51 -.82 -1.32&#xA;-2.14 -1.07 -2.75 .52z M555.68 392.4 c-.3 .77 -.27 1.67 .05 1.99 .86 .86&#xA;3.35 -1.46 2.7 -2.51 -.82 -1.32 -2.14 -1.07 -2.75 .52z M541.72 420.98 c-.65&#xA;2.49 .66 3.48 2.18 1.64 .91 -1.1 .86 -1.58 -.26 -2.51 -1.1 -.91 -1.5 -.73&#xA;-1.92 .87z M534.68 442.4 c-.3 .77 -.27 1.67 .05 1.99 .86 .86 3.35 -1.46 2.7&#xA;-2.51 -.82 -1.32 -2.14 -1.07 -2.75 .52z M531.63 454.11 c-1.07 5.34 -.89&#xA;6.35 .86 4.9 .82 -.68 1.23 -1.65 .91 -2.17 -.32 -.51 -.08 -1.53 .52 -2.25&#xA;.88 -1.06 .82 -1.55 -.29 -2.47 -1.12 -.93 -1.51 -.54 -2.01 1.99z M528&#xA;471.62 c0 2.23 .23 2.43 1.51 1.37 1.26 -1.05 1.32 -1.48 .38 -2.62 -1.6&#xA;-1.92 -1.89 -1.73 -1.89 1.26z M527 482.5 c0 3.22 .21 3.57 1.5 2.5 .83 -.68&#xA;1.5 -1.81 1.5 -2.5 0 -.69 -.67 -1.82 -1.5 -2.5 -1.29 -1.07 -1.5 -.72 -1.5&#xA;2.5z" fill="#5b9aef" fill-rule="evenodd" stroke="none"/>
<path d="M866 660.14 c-8.52 4.35 -16.04 8.35 -16.71 8.89 -.66 .53 -1.89 .97 -2.73&#xA;.97 -.84 0 -3.36 .73 -5.6 1.63 -3.19 1.28 -4.43 2.5 -5.68 5.62 -1.33 3.31&#xA;-3.3 5.11 -11.73 10.67 -10.81 7.13 -15.15 9.07 -31.3 14.02 -9.81 3 -13.89&#xA;5.72 -7 4.66 1.79 -.28 5.5 -.77 8.25 -1.1 7.17 -.87 16.28 -3.51 17.61 -5.11&#xA;.63 -.76 1.81 -1.37 2.63 -1.37 .82 0 6.19 -2.05 11.95 -4.56 10.42 -4.54&#xA;18.13 -9.19 30.15 -18.2 3.48 -2.61 9.33 -6.86 13 -9.44 7.49 -5.27 13.17&#xA;-11.01 13.17 -13.29 0 -.83 -.11 -1.46 -.25 -1.4 -.14 .06 -7.23 3.67 -15.75&#xA;8.03z" fill="url(#grad25)" fill-rule="evenodd" stroke="none"/>
<path d="M1010.68 410.81 c-1.98 2.19 -2.05 4.94 -.28 11.64 1.36 5.16 2.22 6.08 4.41&#xA;4.69 1.67 -1.06 1.7 -3.25 .17 -10.64 -1.51 -7.28 -2.12 -8.09 -4.29 -5.69z&#xA;M982.4 530.11 c-1.05 1.16 -3.41 2.85 -5.25 3.75 -2.94 1.44 -3.86 2.97 -7.64&#xA;12.69 -4.37 11.24 -12.74 28.51 -16.46 33.95 -1.13 1.65 -2.05 3.58 -2.05&#xA;4.29 -.01 2.57 3.93 -.76 8.75 -7.39 2.61 -3.59 6.55 -8.65 8.75 -11.25 2.2&#xA;-2.59 5.33 -7.54 6.96 -10.99 2.72 -5.76 3.2 -6.24 5.84 -5.97 2.67 .28 3.06&#xA;-.14 5.29 -5.62 1.39 -3.43 2.41 -7.95 2.41 -10.75 0 -4.4 -.21 -4.83 -2.35&#xA;-4.83 -1.29 0 -3.2 .95 -4.25 2.11z" fill="#aa79f1" fill-rule="evenodd" stroke="#aa79f1" stroke-linejoin="round" stroke-width="0.80"/>
<path d="M990.62 542.54 c-.34 .89 -.62 2.32 -.62 3.17 0 1.39 .14 1.42 1.41 .37 1.37&#xA;-1.13 1.57 -3.43 .41 -4.59 -.31 -.31 -.85 .16 -1.2 1.05z M985.53 560.58&#xA;c-1.72 4.11 -2.02 8.42 -.59 8.42 1.36 0 1.82 -1.06 2.16 -5 .16 -1.92 .68&#xA;-4.02 1.15 -4.66 .54 -.74 .48 -1.39 -.17 -1.79 -.56 -.35 -1.71 1.02 -2.55&#xA;3.03z M811.69 709.64 c-1.19 1.19 .41 2.36 3.24 2.36 1.55 0 3.38 -.67 4.06&#xA;-1.5 1.07 -1.29 .69 -1.5 -2.71 -1.5 -2.18 0 -4.24 .29 -4.6 .64z" fill="#aa79f1" fill-rule="evenodd" stroke="none"/>
<path d="M744.58 715.72 c-2.72 .69 6.85 3.95 14.18 4.82 3.16 .38 8.2 1.53 11.2 2.57&#xA;3.01 1.04 6.83 1.91 8.5 1.93 1.67 .02 4.83 .75 7.03 1.61 2.2 .86 8.61 2.57&#xA;14.24 3.79 5.67 1.23 11.12 3.02 12.21 4.01 2.15 1.94 2.31 1.93 16.05 -1.24&#xA;8.43 -1.94 12.6 -3.39 12.52 -4.44 -.08 -1.05 -4.42 -1.7 -13.02 -2.05 -14.08&#xA;-.58 -27.95 -2.34 -37.67 -4.8 -4.22 -1.07 -8.82 -1.94 -10.23 -1.94 -3.15 0&#xA;-10.6 -2.89 -10.6 -4.11 0 -.91 -20.94 -1.06 -24.42 -.17z" fill="url(#grad15)" fill-rule="evenodd" stroke="none"/>
<path d="M986.8 523.75 c-3.05 3.55 -3.05 4.25 .02 4.25 2.08 0 3.09 -.57 3.46 -1.96&#xA;.76 -2.9 -1.61 -4.46 -3.48 -2.28z" fill="url(#grad15)" fill-rule="evenodd" stroke="none"/>
<path d="M499.71 490.5 c.56 14.54 1.25 17.34 3.59 18.08 1.05 .33 3.34 3.57 5.29 7.24&#xA;5.74 10.82 7.83 14.22 9.3 14.79 1.07 .41 1.25 -.32 .81 -2.84 -2.01 -11.57&#xA;-4.69 -27.31 -4.7 -27.52 -0 -.14 -.73 -.25 -1.54 -.25 -1.89 0 -2.85 -2.15&#xA;-4.39 -9.34 -1.3 -6.06 -4.26 -10.18 -6.62 -9.28 -.75 .29 -1.52 -.03 -1.75&#xA;-.69 -.23 -.66 -.23 3.76 0 9.81z" fill="url(#gradA16)" fill-rule="evenodd" stroke="none"/>
<path d="M781 245.5 c-1.06 1.27 -.83 1.5 1.5 1.5 2.33 0 2.56 -.23 1.5 -1.5 -.68 -.83&#xA;-1.36 -1.5 -1.5 -1.5 -.14 0 -.82 .67 -1.5 1.5z M748.01 259.51 c1.76 2.12&#xA;25.29 2.04 27.06 -.09 1.01 -1.22 -.94 -1.42 -13.57 -1.42 -13.04 0 -14.6 .17&#xA;-13.49 1.51z M830.99 268.49 c.68 .82 1.58 1.27 2.01 1.01 .43 -.26 1.33 .19&#xA;2.01 1.01 1.31 1.58 4.99 2.06 4.99 .66 0 -1.68 -1.36 -2.12 -2.85 -.91 -1.23&#xA;1 -1.39 1 -.78 -.01 .49 -.82 -.16 -1.6 -1.87 -2.25 -3.85 -1.46 -4.99 -1.3&#xA;-3.5 .49z M820.51 268.99 c-.77 1.25 4.08 3.22 6.93 2.81 2.84 -.41 1.66&#xA;-2.28 -1.48 -2.36 -1.4 -.04 -3.06 -.38 -3.68 -.77 -.68 -.42 -1.39 -.29&#xA;-1.76 .32z M539.55 413.91 c-1.65 3.19 -.59 5.05 1.46 2.58 .68 -.82 .9 -1.49&#xA;.49 -1.49 -.41 0 -.22 -.63 .43 -1.41 .82 -.99 .87 -1.6 .17 -2.03 -.55 -.34&#xA;-1.7 .72 -2.54 2.35z M532.77 433.24 c-1.63 5.75 -1.38 7.52 .81 5.7 .77 -.64&#xA;1.17 -1.53 .89 -1.98 -.28 -.45 -.04 -1.1 .53 -1.46 .58 -.36 .77 -1.07 .43&#xA;-1.61 -.33 -.54 -.11 -1.57 .5 -2.3 .88 -1.06 .82 -1.55 -.28 -2.47 -1.12&#xA;-.93 -1.66 -.17 -2.88 4.12z M530 446.62 c0 2.23 .23 2.43 1.51 1.37 1.26&#xA;-1.05 1.32 -1.48 .38 -2.62 -1.6 -1.92 -1.89 -1.73 -1.89 1.26z M509.66&#xA;516.75 c-.29 .47 -.12 1.5 .37 2.29 .73 1.17 1.1 1.24 1.98 .36 .87 -.87 .8&#xA;-1.32 -.37 -2.29 -.91 -.75 -1.65 -.89 -1.98 -.36z" fill="url(#gradA16)" fill-rule="evenodd" stroke="none"/>
<path d="M586 614.94 c-16.1 3.77 -17.3 4.1 -16.76 4.64 .51 .51 29.8 -6.28 30.61 -7.1&#xA;.82 -.82 -1.96 -.33 -13.85 2.46z M550.5 622.51 c-6.05 1.25 -10.16 2.32&#xA;-9.14 2.38 3 .18 20.06 -3.07 21.09 -4.02 .59 -.54 .96 -.82 -.49 -.62 -1.46&#xA;.2 -4.74 .88 -11.46 2.27z M426.58 650.76 c-1.25 1.25 -.43 2.82 2.28 4.36&#xA;2.77 1.57 2.87 1.56 4.06 -.35 .67 -1.08 1.03 -2.16 .79 -2.39 -.88 -.88&#xA;-6.57 -2.17 -7.13 -1.61z M673.62 698.55 c-.34 .89 -.62 1.76 -.62 1.94 0 .18&#xA;1.99 1 4.43 1.83 3.93 1.34 4.49 1.34 5 .01 .84 -2.19 .78 -2.3 -1.68 -3.22&#xA;-5.61 -2.1 -6.51 -2.17 -7.13 -.56z" fill="#89b8fc" fill-rule="evenodd" stroke="none"/>
<path d="M474.28 629.74 c2.63 .21 6.68 .2 9 -.01 2.32 -.21 .17 -.38 -4.78 -.38 -4.95&#xA;0 -6.85 .17 -4.22 .38z" fill="#2d56a5" fill-rule="evenodd" stroke="none"/>
<path d="M816.5 285.53 c2.2 .73 4.9 1.31 6 1.31 1.1 -.01 -.25 -.64 -3 -1.4 -3.13&#xA;-.87 -5.22 -1.29 -5.86 -1.27 -.64 .02 .17 .48 2.86 1.37z M833.5 290.04 c3.3&#xA;1.06 6.45 1.9 7 1.87 1.72 -.11 -8.89 -3.75 -11 -3.78 -1.1 -.01 .7 .85 4&#xA;1.91z M565.18 407.18 c-1.79 4.75 -2.69 7.1 -3 8.13 -.16 .51 -.17 .7 -.08&#xA;.69 .09 -.01 .29 -.22 .55 -.5 1.41 -1.48 5.66 -12.52 5.06 -13.12 -.29 -.29&#xA;-1.42 1.87 -2.53 4.8z M760.25 684.74 c3.71 .19 9.79 .19 13.5 0 3.71 -.19&#xA;.67 -.35 -6.75 -.35 -7.42 0 -10.46 .16 -6.75 .35z" fill="#1d2c71" fill-rule="evenodd" stroke="none"/>
<path d="M750.3 714.74 c4.29 .19 11.04 .19 15 -0 3.96 -.19 .45 -.34 -7.8 -.34 -8.25&#xA;0 -11.49 .16 -7.2 .34z" fill="#aa79f1" fill-rule="evenodd" stroke="none"/>
<path d="M1084.46 362.49 c2.73 1.34 5.13 2.25 5.35 2.04 .55 -.55 -7.45 -4.54 -9.01&#xA;-4.5 -.71 .02 .94 1.12 3.67 2.46z M1010.06 365.09 c-3.53 .69 -5.31 1.16&#xA;-5.32 1.38 -.01 .22 1.74 .18 5.26 -.14 6.51 -.59 12.14 -2.36 7 -2.19 -1.38&#xA;.04 -4.5 .47 -6.94 .95z M622 672.44 c0 .81 18.12 12.56 19.32 12.53 1.6 -.04&#xA;-1.49 -2.34 -9.52 -7.06 -3.69 -2.17 -6.97 -4.38 -7.31 -4.93 -.6 -.97 -2.49&#xA;-1.39 -2.49 -.55z" fill="#b2e3fe" fill-rule="evenodd" stroke="none"/>
<path d="M499.34 493 c0 4.12 .18 5.81 .39 3.75 .22 -2.06 .22 -5.44 0 -7.5 -.22 -2.06&#xA;-.39 -.38 -.39 3.75z M480.5 566.52 c-4.95 3.55 -11.25 7.97 -14 9.82 -7.47&#xA;5.04 -26.37 21.68 -31.56 27.79 -14.01 16.49 -16.8 25.21 -10.91 34.09 3 4.53&#xA;6.68 6.98 12.47 8.3 1.65 .38 4.87 1.29 7.16 2.03 6.39 2.07 18.98 3.17 27.84&#xA;2.43 3.63 -.3 5.5 -.47 5.84 -.59 .34 -.12 -.85 -.18 -3.34 -.27 -8.11 -.29&#xA;-27.69 -4.52 -34 -7.34 -3.03 -1.35 -6.96 -4.12 -8.75 -6.16 -2.84 -3.24&#xA;-3.25 -4.4 -3.25 -9.35 0 -7.51 2.39 -12.2 11.59 -22.73 8.1 -9.26 10.98&#xA;-11.26 16.96 -11.74 3.25 -.26 4.52 -1.07 7.55 -4.82 4.05 -5.01 17.97 -18.58&#xA;24.9 -24.27 7.85 -6.44 1.45 -4.35 -8.5 2.79z M492.25 629.73 c2.06 .22 5.44&#xA;.22 7.5 0 2.06 -.22 .38 -.39 -3.75 -.39 -4.12 0 -5.81 .18 -3.75 .39z" fill="#4377cd" fill-rule="evenodd" stroke="none"/>
<path d="M469.78 651.74 c2.91 .2 7.41 .2 10 -0 2.59 -.21 .22 -.37 -5.28 -.37 -5.5 0&#xA;-7.62 .17 -4.72 .37z" fill="#5b9aef" fill-rule="evenodd" stroke="none"/>
<path d="M767.77 230.72 c1.8 .22 4.5 .22 6 -.01 1.5 -.23 .03 -.41 -3.27 -.4 -3.56&#xA;.01 -4.67 .17 -2.73 .41z" fill="#877ee4" fill-rule="evenodd" stroke="none"/>
<path d="M1016.2 362.99 c-1.82 .43 -3.62 1.13 -4 1.56 -.38 .43 .13 .48 1.13 .12 1.01&#xA;-.36 3.14 -.66 4.75 -.66 1.61 0 2.92 -.45 2.92 -1 0 -1.12 -.15 -1.12 -4.8&#xA;-.01z" fill="#4238b1" fill-rule="evenodd" stroke="none"/>
<path d="M1107 362.7 c0 .44 1.32 1.68 2.94 2.76 3.1 2.08 7.06 8.2 7.06 10.92 0 .89&#xA;.46 1.61 1.01 1.61 .58 0 .33 -1.61 -.59 -3.75 -.88 -2.06 -1.82 -4.26 -2.08&#xA;-4.88 -.63 -1.52 -8.35 -7.68 -8.34 -6.66z" fill="#2f2369" fill-rule="evenodd" stroke="none"/>
<path d="M502.13 524 c-.02 1.38 .59 5.42 1.36 9 l1.4 6.5 -.55 -6.33 c-.3 -3.48 -.91&#xA;-7.53 -1.36 -9 l-.81 -2.67 -.04 2.5z" fill="#2e5fa9" fill-rule="evenodd" stroke="none"/>
<path d="M419.04 646.18 c-.03 1.59 6.52 7.82 8.23 7.82 .44 0 .33 -.9 -.26 -2 -.59&#xA;-1.1 -1.6 -2 -2.25 -2 -.65 0 -2.19 -1.24 -3.43 -2.75 -1.7 -2.08 -2.26 -2.34&#xA;-2.29 -1.07z" fill="#4675c1" fill-rule="evenodd" stroke="none"/>
<path d="M849.23 668.21 c-2.9 1.14 -5.1 2.25 -4.88 2.47 .46 .46 11.66 -3.62 11.66&#xA;-4.25 0 -.72 -1.29 -.38 -6.77 1.78z" fill="#59278c" fill-rule="evenodd" stroke="none"/>
<path d="M813.75 678.72 c-1.51 .23 -2.75 .84 -2.75 1.35 0 1.18 .67 1.1 5 -.57 1.75&#xA;-.68 2.48 -1.07 2.12 -1.19 -.36 -.12 -1.8 .02 -4.37 .41z" fill="#411f6f" fill-rule="evenodd" stroke="none"/>
</svg>